<svg width="56" height="16" viewBox="0 0 56 16" fill="none" xmlns="http://www.w3.org/2000/svg">
<path d="M6.47805 7.26561V12.1812C6.47805 12.5989 6.39549 12.9971 6.23036 13.3758C6.07793 13.7413 5.86835 14.0612 5.60161 14.3354C5.33486 14.6095 5.01731 14.825 4.64895 14.9816C4.2933 15.1514 3.91223 15.2362 3.50577 15.2362C3.0993 15.2362 2.71824 15.1579 2.36258 15.0012C2.00693 14.8446 1.69572 14.6357 1.42898 14.3745C1.16224 14.1004 0.946303 13.787 0.781177 13.4345C0.628752 13.069 0.546188 12.6773 0.533486 12.2595V8.63648C0.49538 8.23174 0.317551 7.93798 0 7.7552C0.177829 7.66381 0.355658 7.61812 0.533486 7.61812V2.99633C0.546188 2.57854 0.628752 2.18686 0.781177 1.8213C0.946303 1.45573 1.16224 1.14239 1.42898 0.881273C1.69572 0.6071 2.00693 0.391678 2.36258 0.235007C2.71824 0.0783355 3.0993 0 3.50577 0C3.91223 0 4.2933 0.0848634 4.64895 0.25459C5.01731 0.411261 5.33486 0.626683 5.60161 0.900857C5.86835 1.17503 6.07793 1.50143 6.23036 1.88005C6.39549 2.24561 6.47805 2.64382 6.47805 3.07466C6.47805 3.29661 6.4971 3.45981 6.53521 3.56426C6.58602 3.66871 6.63683 3.75357 6.68763 3.81885C6.73844 3.88413 6.7829 3.94288 6.821 3.99511C6.87181 4.04733 6.89722 4.13219 6.89722 4.24969H5.90646C5.70322 4.22358 5.60161 4.11261 5.60161 3.91677C5.60161 4.11261 5.49999 4.22358 5.29676 4.24969H4.28694C4.28694 4.13219 4.306 4.04733 4.3441 3.99511C4.39491 3.94288 4.44572 3.88413 4.49653 3.81885C4.54734 3.75357 4.59179 3.66871 4.6299 3.56426C4.68071 3.45981 4.70611 3.29009 4.70611 3.05508V3.0355C4.70611 2.86577 4.69976 2.6634 4.68706 2.4284C4.67436 2.18033 4.6299 1.94533 4.55369 1.72338C4.47748 1.50143 4.35681 1.31212 4.19168 1.15545C4.02655 0.998777 3.79792 0.920442 3.50577 0.920442C3.20092 0.920442 2.96593 1.0053 2.8008 1.17503C2.64838 1.3317 2.53406 1.52101 2.45785 1.74296C2.38164 1.96491 2.33718 2.19992 2.32448 2.44798C2.31177 2.69604 2.30542 2.90494 2.30542 3.07466V7.61812C2.48325 7.61812 2.66108 7.66381 2.83891 7.7552C2.52136 7.93798 2.34353 8.23174 2.30542 8.63648V12.1812C2.30542 12.3509 2.31177 12.5598 2.32448 12.8078C2.33718 13.0428 2.38164 13.2778 2.45785 13.5129C2.53406 13.7348 2.64838 13.9241 2.8008 14.0808C2.96593 14.2375 3.20092 14.3158 3.50577 14.3158C3.81062 14.3158 4.03925 14.2375 4.19168 14.0808C4.35681 13.9241 4.47748 13.7348 4.55369 13.5129C4.6299 13.2778 4.67436 13.0428 4.68706 12.8078C4.69976 12.5598 4.70611 12.3509 4.70611 12.1812V8.16646C4.56639 8.17952 4.44572 8.23827 4.3441 8.34272C4.25519 8.44716 4.21073 8.5712 4.21073 8.71481V8.73439C4.19803 8.93023 4.14722 9.09996 4.05831 9.24357C3.9821 9.37413 3.86778 9.49164 3.71535 9.59608C3.56293 9.68748 3.34064 9.73317 3.04849 9.73317V7.26561H6.47805ZM1.56235 6.69768C1.56235 6.61934 1.556 6.541 1.5433 6.46267C1.5433 6.38433 1.5433 6.31253 1.5433 6.24725V5.79682C1.5306 5.50959 1.52425 5.23541 1.52425 4.9743C1.52425 4.71318 1.5179 4.46512 1.50519 4.23011C1.49249 4.11261 1.48614 4.00816 1.48614 3.91677C1.48614 3.81232 1.47979 3.70787 1.46709 3.60343C1.46709 3.51204 1.46074 3.42717 1.44803 3.34884C1.44803 3.25745 1.44803 3.17911 1.44803 3.11383C1.44803 3.04855 1.44168 2.9898 1.42898 2.93758C1.42898 2.88535 1.42898 2.83966 1.42898 2.80049V2.70257C1.41628 2.70257 1.40993 2.7091 1.40993 2.72216V2.80049C1.40993 2.83966 1.40358 2.88535 1.39088 2.93758C1.39088 2.9898 1.39088 3.04855 1.39088 3.11383C1.39088 3.17911 1.38452 3.25745 1.37182 3.34884C1.37182 3.42717 1.37182 3.51204 1.37182 3.60343C1.35912 3.70787 1.35277 3.81232 1.35277 3.91677C1.35277 4.00816 1.34642 4.11261 1.33372 4.23011C1.32101 4.46512 1.31466 4.71318 1.31466 4.9743C1.31466 5.23541 1.30831 5.50959 1.29561 5.79682V6.24725C1.29561 6.31253 1.28926 6.38433 1.27656 6.46267C1.27656 6.541 1.27656 6.61934 1.27656 6.69768V8.51897C1.27656 8.55814 1.27656 8.59731 1.27656 8.63648C1.28926 8.67564 1.29561 8.70828 1.29561 8.73439V9.40025C1.29561 9.54386 1.29561 9.68748 1.29561 9.83109C1.30831 9.96165 1.31466 10.0922 1.31466 10.2228C1.31466 10.3664 1.31466 10.5035 1.31466 10.634C1.32737 10.7515 1.33372 10.8625 1.33372 10.967C1.34642 11.0845 1.35277 11.1954 1.35277 11.2999C1.35277 11.4043 1.35912 11.5022 1.37182 11.5936C1.37182 11.6981 1.37182 11.7895 1.37182 11.8678C1.38452 11.9461 1.39088 12.018 1.39088 12.0832C1.39088 12.1485 1.39088 12.2073 1.39088 12.2595C1.40358 12.3117 1.40993 12.3574 1.40993 12.3966V12.4945C1.40993 12.5075 1.41628 12.5141 1.42898 12.5141V12.3966C1.42898 12.3574 1.42898 12.3117 1.42898 12.2595C1.44168 12.2073 1.44803 12.1485 1.44803 12.0832C1.44803 12.018 1.44803 11.9461 1.44803 11.8678C1.46074 11.7895 1.46709 11.6981 1.46709 11.5936C1.47979 11.5022 1.48614 11.4043 1.48614 11.2999C1.48614 11.1954 1.49249 11.0845 1.50519 10.967C1.50519 10.8625 1.50519 10.7515 1.50519 10.634C1.5179 10.5035 1.52425 10.3664 1.52425 10.2228C1.52425 10.0922 1.52425 9.96165 1.52425 9.83109C1.53695 9.68748 1.5433 9.54386 1.5433 9.40025V8.9694C1.5433 8.86495 1.54965 8.78662 1.56235 8.73439V6.69768ZM5.71593 9.53733C5.70322 9.40677 5.69687 9.28927 5.69687 9.18482C5.69687 9.06732 5.69052 8.95634 5.67782 8.8519C5.66512 8.65606 5.64606 8.49286 5.62066 8.3623C5.62066 8.33619 5.61431 8.31008 5.60161 8.28397C5.60161 8.25785 5.60161 8.23827 5.60161 8.22521V8.16646L5.58255 8.18605V8.22521C5.58255 8.23827 5.5762 8.25785 5.5635 8.28397C5.5635 8.31008 5.5635 8.33619 5.5635 8.3623C5.5381 8.49286 5.51904 8.65606 5.50634 8.8519C5.49364 8.95634 5.48729 9.06732 5.48729 9.18482C5.48729 9.28927 5.48094 9.40677 5.46824 9.53733V9.73317C5.46824 9.77234 5.46188 9.81151 5.44918 9.85067C5.44918 9.87679 5.44918 9.9029 5.44918 9.92901V10.7515C5.44918 10.7907 5.45553 10.8233 5.46824 10.8494V11.1432C5.46824 11.2085 5.46824 11.2672 5.46824 11.3195C5.48094 11.3717 5.48729 11.4304 5.48729 11.4957C5.48729 11.561 5.48729 11.6197 5.48729 11.672C5.49999 11.7242 5.50634 11.7764 5.50634 11.8286C5.51904 11.8809 5.5254 11.9331 5.5254 11.9853C5.5254 12.0245 5.53175 12.0636 5.54445 12.1028C5.54445 12.142 5.54445 12.1812 5.54445 12.2203C5.55715 12.2595 5.5635 12.2921 5.5635 12.3182C5.5635 12.3443 5.5635 12.3705 5.5635 12.3966C5.5762 12.4227 5.58255 12.4423 5.58255 12.4553V12.4945C5.58255 12.5075 5.58891 12.5141 5.60161 12.5141V12.4553C5.60161 12.4423 5.60161 12.4227 5.60161 12.3966C5.61431 12.3705 5.62066 12.3443 5.62066 12.3182C5.62066 12.2921 5.62066 12.2595 5.62066 12.2203C5.63336 12.1812 5.63971 12.142 5.63971 12.1028C5.65242 12.0636 5.65877 12.0245 5.65877 11.9853C5.65877 11.9331 5.66512 11.8809 5.67782 11.8286C5.67782 11.7764 5.67782 11.7242 5.67782 11.672C5.69052 11.6197 5.69687 11.561 5.69687 11.4957C5.69687 11.4304 5.69687 11.3717 5.69687 11.3195C5.70958 11.2672 5.71593 11.2085 5.71593 11.1432V10.9474C5.71593 10.8951 5.72228 10.8625 5.73498 10.8494V9.92901C5.73498 9.9029 5.72863 9.87679 5.71593 9.85067C5.71593 9.81151 5.71593 9.77234 5.71593 9.73317V9.53733Z" fill="#F4EDE8"/>
<path d="M13.3997 7.6377C13.6156 7.6377 13.7934 7.68339 13.9332 7.77479C13.7934 7.86618 13.6728 7.99021 13.5712 8.14688C13.4822 8.30355 13.4251 8.47328 13.3997 8.65606V11.6132C13.387 12.031 13.2981 12.4227 13.1329 12.7883C12.9805 13.1408 12.7709 13.4541 12.5042 13.7283C12.2374 13.9894 11.9262 14.1983 11.5706 14.355C11.2149 14.5116 10.8339 14.59 10.4274 14.59C10.0209 14.59 9.63987 14.5116 9.28421 14.355C8.92855 14.1983 8.61735 13.9894 8.35061 13.7283C8.08387 13.4541 7.86793 13.1408 7.70281 12.7883C7.55038 12.4227 7.46782 12.031 7.45512 11.6132V8.65606C7.41701 8.25133 7.23918 7.95757 6.92163 7.77479C7.06135 7.68339 7.23918 7.6377 7.45512 7.6377V3.85802C7.46782 3.45328 7.55038 3.06814 7.70281 2.70257C7.86793 2.33701 8.08387 2.02366 8.35061 1.76255C8.61735 1.48837 8.92855 1.27295 9.28421 1.11628C9.63987 0.959609 10.0209 0.881273 10.4274 0.881273C10.8339 0.881273 11.2149 0.959609 11.5706 1.11628C11.9262 1.27295 12.2374 1.48837 12.5042 1.76255C12.7709 2.02366 12.9805 2.33701 13.1329 2.70257C13.2981 3.06814 13.387 3.45328 13.3997 3.85802V7.6377ZM8.48398 6.93268C8.48398 6.8674 8.47763 6.80865 8.46493 6.75643C8.46493 6.69115 8.46493 6.62587 8.46493 6.56059V6.1885C8.45223 5.94043 8.44588 5.70543 8.44588 5.48348C8.44588 5.26153 8.43952 5.05263 8.42682 4.85679C8.41412 4.7654 8.40777 4.67401 8.40777 4.58262C8.40777 4.49123 8.40142 4.40637 8.38872 4.32803C8.38872 4.24969 8.38237 4.17789 8.36966 4.11261C8.36966 4.04733 8.36966 3.98858 8.36966 3.93635C8.36966 3.87107 8.36331 3.81885 8.35061 3.77968C8.35061 3.72746 8.35061 3.68829 8.35061 3.66218V3.56426C8.33791 3.56426 8.33156 3.57079 8.33156 3.58384V3.66218C8.33156 3.68829 8.32521 3.72746 8.3125 3.77968C8.3125 3.81885 8.3125 3.87107 8.3125 3.93635C8.3125 3.98858 8.30615 4.04733 8.29345 4.11261C8.29345 4.17789 8.29345 4.24969 8.29345 4.32803C8.28075 4.40637 8.2744 4.49123 8.2744 4.58262C8.2744 4.67401 8.26805 4.7654 8.25535 4.85679C8.24264 5.05263 8.23629 5.26153 8.23629 5.48348C8.23629 5.70543 8.22994 5.94043 8.21724 6.1885V6.56059C8.21724 6.62587 8.21089 6.69115 8.19819 6.75643C8.19819 6.80865 8.19819 6.8674 8.19819 6.93268V8.4798C8.19819 8.5712 8.20454 8.63648 8.21724 8.67564V9.24357C8.21724 9.36108 8.21724 9.47858 8.21724 9.59608C8.22994 9.71359 8.23629 9.82456 8.23629 9.92901C8.23629 10.0465 8.23629 10.1575 8.23629 10.2619C8.24899 10.3533 8.25535 10.4512 8.25535 10.5557C8.26805 10.6601 8.2744 10.7581 8.2744 10.8494C8.2744 10.9278 8.28075 11.0061 8.29345 11.0845C8.29345 11.1628 8.29345 11.2346 8.29345 11.2999C8.30615 11.3652 8.3125 11.4304 8.3125 11.4957C8.3125 11.561 8.3125 11.6197 8.3125 11.672C8.32521 11.7111 8.33156 11.7438 8.33156 11.7699V11.8286C8.33156 11.8417 8.33791 11.8482 8.35061 11.8482V11.7699C8.35061 11.7438 8.35061 11.7111 8.35061 11.672C8.36331 11.6197 8.36966 11.561 8.36966 11.4957C8.36966 11.4304 8.36966 11.3652 8.36966 11.2999C8.38237 11.2346 8.38872 11.1628 8.38872 11.0845C8.40142 11.0061 8.40777 10.9278 8.40777 10.8494C8.40777 10.7581 8.41412 10.6601 8.42682 10.5557C8.42682 10.4512 8.42682 10.3533 8.42682 10.2619C8.43952 10.1575 8.44588 10.0465 8.44588 9.92901C8.44588 9.82456 8.44588 9.71359 8.44588 9.59608C8.45858 9.47858 8.46493 9.36108 8.46493 9.24357V8.67564C8.47763 8.63648 8.48398 8.5712 8.48398 8.4798V6.93268ZM11.6277 3.93635C11.6277 3.76663 11.6214 3.55773 11.6087 3.30967C11.596 3.06161 11.5515 2.8266 11.4753 2.60465C11.3991 2.3827 11.2784 2.19339 11.1133 2.03672C10.9609 1.86699 10.7322 1.78213 10.4274 1.78213C10.1225 1.78213 9.88756 1.86699 9.72243 2.03672C9.57001 2.19339 9.45569 2.3827 9.37948 2.60465C9.30326 2.8266 9.25881 3.06161 9.24611 3.30967C9.2334 3.55773 9.22705 3.76663 9.22705 3.93635V7.6377C9.44299 7.6377 9.62082 7.68339 9.76054 7.77479C9.44299 7.95757 9.26516 8.25133 9.22705 8.65606V11.5349C9.22705 11.7046 9.2334 11.9135 9.24611 12.1616C9.25881 12.3966 9.30326 12.6316 9.37948 12.8666C9.45569 13.0885 9.57001 13.2778 9.72243 13.4345C9.88756 13.5912 10.1225 13.6695 10.4274 13.6695C10.7322 13.6695 10.9609 13.5912 11.1133 13.4345C11.2784 13.2778 11.3991 13.0885 11.4753 12.8666C11.5515 12.6316 11.596 12.3966 11.6087 12.1616C11.6214 11.9135 11.6277 11.7046 11.6277 11.5349V8.65606C11.6023 8.26438 11.4245 7.97062 11.0943 7.77479C11.234 7.68339 11.4118 7.6377 11.6277 7.6377V3.93635ZM12.6566 6.93268C12.6566 6.8674 12.6566 6.80865 12.6566 6.75643C12.6566 6.69115 12.6503 6.62587 12.6376 6.56059V6.1885C12.6376 5.94043 12.6312 5.70543 12.6185 5.48348C12.6185 5.26153 12.6122 5.05263 12.5994 4.85679C12.5867 4.7654 12.5804 4.67401 12.5804 4.58262C12.5804 4.49123 12.574 4.40637 12.5613 4.32803C12.5613 4.24969 12.555 4.17789 12.5423 4.11261C12.5423 4.04733 12.5423 3.98858 12.5423 3.93635C12.5423 3.87107 12.5359 3.81885 12.5232 3.77968C12.5232 3.72746 12.5232 3.68829 12.5232 3.66218V3.56426C12.5105 3.56426 12.5042 3.57079 12.5042 3.58384V3.66218C12.5042 3.68829 12.5042 3.72746 12.5042 3.77968C12.5042 3.81885 12.4978 3.87107 12.4851 3.93635C12.4851 3.98858 12.4788 4.04733 12.4661 4.11261C12.4661 4.17789 12.4661 4.24969 12.4661 4.32803C12.4534 4.40637 12.447 4.49123 12.447 4.58262C12.447 4.67401 12.4407 4.7654 12.428 4.85679C12.4153 5.05263 12.4089 5.26153 12.4089 5.48348C12.4089 5.70543 12.4026 5.94043 12.3899 6.1885V6.93268C12.3772 7.06324 12.3708 7.1938 12.3708 7.32436C12.3708 7.45492 12.3708 7.58548 12.3708 7.71603C12.3708 7.84659 12.3708 7.97715 12.3708 8.10771C12.3708 8.22521 12.3772 8.34925 12.3899 8.4798V9.24357C12.3899 9.36108 12.3899 9.47858 12.3899 9.59608C12.4026 9.71359 12.4089 9.82456 12.4089 9.92901C12.4089 10.0465 12.4089 10.1575 12.4089 10.2619C12.4216 10.3533 12.428 10.4512 12.428 10.5557C12.4407 10.6601 12.447 10.7581 12.447 10.8494C12.447 10.9278 12.4534 11.0061 12.4661 11.0845C12.4661 11.1628 12.4661 11.2346 12.4661 11.2999C12.4788 11.3652 12.4851 11.4304 12.4851 11.4957C12.4978 11.561 12.5042 11.6197 12.5042 11.672C12.5042 11.7111 12.5042 11.7438 12.5042 11.7699V11.8286C12.5042 11.8417 12.5105 11.8482 12.5232 11.8482V11.7699C12.5232 11.7438 12.5232 11.7111 12.5232 11.672C12.5359 11.6197 12.5423 11.561 12.5423 11.4957C12.5423 11.4304 12.5423 11.3652 12.5423 11.2999C12.555 11.2346 12.5613 11.1628 12.5613 11.0845C12.574 11.0061 12.5804 10.9278 12.5804 10.8494C12.5804 10.7581 12.5867 10.6601 12.5994 10.5557C12.5994 10.4512 12.5994 10.3533 12.5994 10.2619C12.6122 10.1575 12.6185 10.0465 12.6185 9.92901C12.6185 9.82456 12.6185 9.71359 12.6185 9.59608C12.6312 9.47858 12.6376 9.36108 12.6376 9.24357V8.87148C12.6376 8.84537 12.6376 8.81273 12.6376 8.77356C12.6503 8.7344 12.6566 8.70176 12.6566 8.67564V6.93268Z" fill="#F4EDE8"/>
<path d="M20.4702 5.11138C20.4702 5.6989 20.3304 6.22766 20.051 6.69768C19.7715 7.16769 19.3968 7.53325 18.9269 7.79437C19.1555 7.97715 19.3651 8.19258 19.5556 8.44064C19.7461 8.67564 19.9049 8.93676 20.0319 9.22399C20.1717 9.51122 20.2796 9.80498 20.3558 10.1053C20.4321 10.4055 20.4702 10.6993 20.4702 10.9865V12.2399C20.4575 12.6577 20.3749 13.0494 20.2225 13.4149C20.07 13.7674 19.8605 14.0808 19.5937 14.355C19.327 14.6161 19.0158 14.825 18.6601 14.9816C18.3045 15.1514 17.9234 15.2362 17.5169 15.2362H15.7259C15.637 15.2362 15.5608 15.2036 15.4973 15.1383C15.4465 15.073 15.4211 14.9947 15.4211 14.9033C15.4211 14.9947 15.3893 15.073 15.3258 15.1383C15.2623 15.2036 15.1925 15.2362 15.1162 15.2362H14.1064C14.1064 15.1187 14.1255 15.0339 14.1636 14.9816C14.2144 14.9294 14.2652 14.8707 14.316 14.8054C14.3668 14.7532 14.4113 14.6748 14.4494 14.5704C14.5002 14.4659 14.5256 14.3027 14.5256 14.0808V8.61689C14.4875 8.22521 14.3097 7.93798 13.9921 7.7552C14.1572 7.65076 14.3351 7.59853 14.5256 7.59853V1.15545C14.5256 0.933497 14.5002 0.770299 14.4494 0.665851C14.4113 0.561404 14.3668 0.483069 14.316 0.430845C14.2652 0.365565 14.2144 0.306814 14.1636 0.25459C14.1255 0.202366 14.1064 0.117503 14.1064 0H15.1162C15.1925 0 15.2623 0.0326397 15.3258 0.0979191C15.3893 0.150143 15.4211 0.22195 15.4211 0.313342C15.4211 0.104447 15.5227 0 15.7259 0H17.5169C17.9234 0 18.3045 0.0783355 18.6601 0.235007C19.0158 0.391678 19.327 0.6071 19.5937 0.881273C19.8605 1.14239 20.07 1.45573 20.2225 1.8213C20.3749 2.18686 20.4575 2.57201 20.4702 2.97674V5.11138ZM15.5545 6.56059C15.5545 6.4692 15.5481 6.38433 15.5354 6.306C15.5354 6.21461 15.5354 6.12974 15.5354 6.05141V5.54223C15.5227 5.20278 15.5164 4.88291 15.5164 4.58262C15.5164 4.28233 15.51 4.00163 15.4973 3.74051C15.4846 3.5969 15.4783 3.46634 15.4783 3.34884C15.4783 3.23133 15.4719 3.12036 15.4592 3.01591C15.4592 2.91147 15.4528 2.81355 15.4401 2.72216C15.4401 2.61771 15.4401 2.53284 15.4401 2.46757C15.4401 2.38923 15.4338 2.31742 15.4211 2.25214C15.4211 2.18686 15.4211 2.13464 15.4211 2.09547V1.97797C15.4084 1.99102 15.402 2.00408 15.402 2.01714V2.09547C15.402 2.13464 15.3957 2.18686 15.383 2.25214C15.383 2.31742 15.383 2.38923 15.383 2.46757C15.383 2.53284 15.3766 2.61771 15.3639 2.72216C15.3639 2.81355 15.3639 2.91147 15.3639 3.01591C15.3512 3.12036 15.3449 3.23133 15.3449 3.34884C15.3449 3.46634 15.3385 3.5969 15.3258 3.74051C15.3131 4.00163 15.3068 4.28233 15.3068 4.58262C15.3068 4.88291 15.3004 5.20278 15.2877 5.54223V6.05141C15.2877 6.12974 15.2877 6.21461 15.2877 6.306C15.2877 6.38433 15.2814 6.4692 15.2687 6.56059V8.65606C15.2687 8.70828 15.2687 8.75398 15.2687 8.79315C15.2814 8.83231 15.2877 8.87801 15.2877 8.93023V9.67442C15.2877 9.84415 15.2877 10.0139 15.2877 10.1836C15.3004 10.3403 15.3068 10.4904 15.3068 10.634C15.3068 10.7776 15.3068 10.9213 15.3068 11.0649C15.3195 11.2085 15.3258 11.3521 15.3258 11.4957C15.3385 11.561 15.3449 11.6263 15.3449 11.6916C15.3449 11.7438 15.3449 11.8025 15.3449 11.8678C15.3449 11.9331 15.3449 11.9918 15.3449 12.0441C15.3576 12.0963 15.3639 12.1485 15.3639 12.2007C15.3639 12.3052 15.3639 12.4096 15.3639 12.5141C15.3766 12.6055 15.383 12.6903 15.383 12.7687C15.383 12.847 15.383 12.9188 15.383 12.9841C15.3957 13.0363 15.402 13.082 15.402 13.1212V13.2191C15.402 13.2322 15.4084 13.2452 15.4211 13.2583V13.1212C15.4211 13.082 15.4211 13.0363 15.4211 12.9841C15.4338 12.9188 15.4401 12.847 15.4401 12.7687C15.4401 12.6903 15.4401 12.6055 15.4401 12.5141C15.4528 12.4096 15.4592 12.3052 15.4592 12.2007C15.4719 12.1485 15.4783 12.0963 15.4783 12.0441C15.4783 11.9918 15.4783 11.9331 15.4783 11.8678C15.4783 11.8025 15.4783 11.7438 15.4783 11.6916C15.491 11.6263 15.4973 11.561 15.4973 11.4957C15.4973 11.3521 15.4973 11.2085 15.4973 11.0649C15.51 10.9213 15.5164 10.7776 15.5164 10.634C15.5164 10.4904 15.5164 10.3403 15.5164 10.1836C15.5291 10.0139 15.5354 9.84415 15.5354 9.67442V9.18482C15.5354 9.06732 15.5418 8.98246 15.5545 8.93023V6.56059ZM19.4794 11.8482C19.4667 11.8874 19.4603 11.9527 19.4603 12.0441V12.3966C19.4603 12.4619 19.454 12.5206 19.4413 12.5728C19.4413 12.6251 19.4413 12.6773 19.4413 12.7295C19.4413 12.7817 19.4349 12.8274 19.4222 12.8666C19.4222 12.9058 19.4222 12.9449 19.4222 12.9841V13.0428C19.4095 13.0559 19.4032 13.0755 19.4032 13.1016V13.1995C19.3905 13.2126 19.3841 13.2256 19.3841 13.2387V13.2778C19.3841 13.2909 19.3778 13.304 19.3651 13.317C19.3651 13.317 19.3651 13.3235 19.3651 13.3366C19.3651 13.3497 19.3587 13.3627 19.346 13.3758H19.3651C19.3651 13.3758 19.3714 13.3627 19.3841 13.3366C19.3841 13.3366 19.3905 13.3235 19.4032 13.2974C19.4159 13.2844 19.4222 13.2713 19.4222 13.2583C19.4349 13.2452 19.4413 13.2322 19.4413 13.2191C19.454 13.206 19.4603 13.193 19.4603 13.1799C19.473 13.1669 19.4794 13.1473 19.4794 13.1212C19.5048 13.0951 19.5175 13.0624 19.5175 13.0233C19.5429 12.971 19.5683 12.8796 19.5937 12.7491C19.6191 12.6707 19.6318 12.6185 19.6318 12.5924C19.6445 12.5663 19.6509 12.5402 19.6509 12.5141C19.6509 12.4749 19.6572 12.4423 19.6699 12.4162C19.6699 12.39 19.6699 12.3639 19.6699 12.3378C19.6826 12.2987 19.689 12.266 19.689 12.2399C19.7017 12.2007 19.708 12.142 19.708 12.0636C19.7207 11.9984 19.7271 11.9331 19.7271 11.8678C19.7271 11.8025 19.7334 11.7373 19.7461 11.672V10.8494C19.7461 10.7842 19.7398 10.7189 19.7271 10.6536C19.7271 10.5883 19.7207 10.5231 19.708 10.4578C19.708 10.3794 19.7017 10.3207 19.689 10.2815C19.689 10.2554 19.6826 10.2293 19.6699 10.2032C19.6699 10.164 19.6699 10.1314 19.6699 10.1053C19.6572 10.0792 19.6509 10.053 19.6509 10.0269C19.6509 9.98776 19.6445 9.95512 19.6318 9.92901C19.6318 9.9029 19.6255 9.87679 19.6128 9.85067C19.6128 9.82456 19.6128 9.79845 19.6128 9.77234C19.5874 9.694 19.5747 9.64831 19.5747 9.63525C19.562 9.59608 19.5429 9.55039 19.5175 9.49816C19.5175 9.459 19.5048 9.42636 19.4794 9.40025C19.4794 9.36108 19.4667 9.32844 19.4413 9.30233C19.4159 9.2501 19.3968 9.21093 19.3841 9.18482C19.3714 9.17177 19.3651 9.15871 19.3651 9.14566H19.346C19.346 9.14566 19.3524 9.15871 19.3651 9.18482C19.3651 9.19788 19.3651 9.21094 19.3651 9.22399C19.3778 9.22399 19.3841 9.23052 19.3841 9.24357C19.3841 9.26969 19.3905 9.2958 19.4032 9.32191V9.41983C19.4159 9.44594 19.4222 9.47858 19.4222 9.51775C19.4222 9.58303 19.4286 9.62872 19.4413 9.65484V9.79192C19.454 9.84415 19.4603 9.89637 19.4603 9.94859C19.4603 10.0008 19.4603 10.0596 19.4603 10.1248V10.3011C19.4603 10.3272 19.4603 10.3599 19.4603 10.399C19.473 10.4251 19.4794 10.4512 19.4794 10.4774V11.8482ZM18.6982 10.9865C18.6982 10.8168 18.6919 10.5753 18.6792 10.2619C18.6665 9.94859 18.622 9.63525 18.5458 9.32191C18.4696 9.00857 18.3489 8.74092 18.1838 8.51897C18.0314 8.28397 17.8027 8.16646 17.4979 8.16646H16.812C16.6722 8.16646 16.5516 8.21869 16.45 8.32313C16.3483 8.42758 16.2975 8.55161 16.2975 8.69523V13.787C16.2975 13.9306 16.3483 14.0547 16.45 14.1591C16.5516 14.2505 16.6722 14.3027 16.812 14.3158H17.4979C17.8027 14.3158 18.0314 14.2375 18.1838 14.0808C18.3489 13.9111 18.4696 13.7152 18.5458 13.4933C18.622 13.2713 18.6665 13.0363 18.6792 12.7883C18.6919 12.5402 18.6982 12.3313 18.6982 12.1616V10.9865ZM18.6982 3.05508C18.6982 2.88535 18.6919 2.68299 18.6792 2.44798C18.6665 2.19992 18.622 1.96491 18.5458 1.74296C18.4696 1.52101 18.3489 1.3317 18.1838 1.17503C18.0314 1.0053 17.8027 0.920442 17.4979 0.920442H16.812C16.6722 0.920442 16.5516 0.972665 16.45 1.07711C16.3483 1.18156 16.2975 1.30559 16.2975 1.4492V6.71726C16.2975 6.86087 16.3483 6.9849 16.45 7.08935C16.5516 7.1938 16.6722 7.24602 16.812 7.24602H17.4979C17.8027 7.24602 18.0314 7.16769 18.1838 7.01102C18.3489 6.85435 18.4696 6.66504 18.5458 6.44308C18.622 6.20808 18.6665 5.97307 18.6792 5.73807C18.6919 5.49001 18.6982 5.28111 18.6982 5.11138V3.05508ZM19.5556 5.64015C19.581 5.56181 19.5937 5.50959 19.5937 5.48348C19.6191 5.43125 19.6318 5.37903 19.6318 5.32681C19.6445 5.30069 19.6509 5.27458 19.6509 5.24847C19.6509 5.2093 19.6572 5.17666 19.6699 5.15055C19.6699 5.12444 19.6699 5.09833 19.6699 5.07222C19.6826 5.03305 19.689 4.99388 19.689 4.95471C19.7017 4.91555 19.708 4.85027 19.708 4.75887C19.7207 4.69359 19.7271 4.62832 19.7271 4.56304C19.7271 4.49776 19.7334 4.43248 19.7461 4.3672V3.93635C19.7461 3.79274 19.7461 3.65565 19.7461 3.52509C19.7461 3.38148 19.7398 3.24439 19.7271 3.11383C19.7144 3.07466 19.708 3.04202 19.708 3.01591C19.708 2.97674 19.7017 2.9441 19.689 2.91799C19.689 2.8266 19.6826 2.76132 19.6699 2.72216C19.6572 2.65688 19.6445 2.59812 19.6318 2.5459C19.6318 2.49368 19.6255 2.44145 19.6128 2.38923C19.5874 2.31089 19.5747 2.25867 19.5747 2.23256C19.5493 2.18033 19.5366 2.14117 19.5366 2.11506C19.5112 2.06283 19.4921 2.02366 19.4794 1.99755C19.4794 1.95839 19.4667 1.92575 19.4413 1.89963C19.4286 1.86047 19.4095 1.81477 19.3841 1.76255L19.346 1.72338V1.74296C19.346 1.75602 19.346 1.76255 19.346 1.76255C19.3587 1.76255 19.3651 1.76907 19.3651 1.78213C19.3778 1.79519 19.3841 1.81477 19.3841 1.84088C19.3841 1.86699 19.3905 1.89311 19.4032 1.91922V2.01714C19.4159 2.04325 19.4222 2.08242 19.4222 2.13464C19.4222 2.16075 19.4222 2.18686 19.4222 2.21298C19.4349 2.22603 19.4413 2.24561 19.4413 2.27173V2.40881C19.454 2.46104 19.4603 2.51326 19.4603 2.56548C19.4603 2.61771 19.4603 2.67646 19.4603 2.74174V2.93758C19.4603 2.96369 19.4603 2.99633 19.4603 3.0355C19.473 3.06161 19.4794 3.08772 19.4794 3.11383V4.56304C19.4667 4.6022 19.4603 4.66748 19.4603 4.75887V5.13097C19.4603 5.19625 19.454 5.255 19.4413 5.30722C19.4413 5.35945 19.4413 5.41167 19.4413 5.46389C19.4413 5.51612 19.4349 5.56834 19.4222 5.62056C19.4222 5.65973 19.4222 5.6989 19.4222 5.73807C19.4222 5.80335 19.4159 5.84251 19.4032 5.85557V5.97307C19.3905 5.97307 19.3841 5.98613 19.3841 6.01224V6.05141C19.3841 6.06446 19.3778 6.07752 19.3651 6.09058C19.3651 6.09058 19.3651 6.0971 19.3651 6.11016C19.3651 6.12322 19.3587 6.13627 19.346 6.14933L19.3841 6.11016C19.3841 6.0971 19.3841 6.09058 19.3841 6.09058C19.3968 6.07752 19.4032 6.06446 19.4032 6.05141C19.4159 6.05141 19.4222 6.03835 19.4222 6.01224C19.4349 6.01224 19.4413 5.99918 19.4413 5.97307C19.454 5.97307 19.4603 5.96002 19.4603 5.93391C19.473 5.92085 19.4794 5.90127 19.4794 5.87515C19.5048 5.84904 19.5175 5.8164 19.5175 5.77723C19.5429 5.6989 19.5556 5.6532 19.5556 5.64015Z" fill="#F4EDE8"/>
<path d="M27.6768 13.4149C27.7276 13.6369 27.7848 13.8001 27.8483 13.9045C27.9118 14.009 27.9753 14.0938 28.0389 14.1591C28.1024 14.2244 28.1595 14.2832 28.2103 14.3354C28.2611 14.3876 28.2992 14.4725 28.3246 14.59H27.3148C27.2259 14.59 27.1434 14.5573 27.0671 14.492C27.0036 14.4268 26.9655 14.3484 26.9528 14.257C26.9655 14.3484 26.9465 14.4268 26.8957 14.492C26.8449 14.5573 26.7813 14.59 26.7051 14.59H25.6953C25.6699 14.4725 25.6763 14.3876 25.7144 14.3354C25.7525 14.2832 25.7906 14.2309 25.8287 14.1787C25.8668 14.1134 25.8986 14.0286 25.924 13.9241C25.9494 13.8066 25.943 13.6304 25.9049 13.3954V13.3758L25.4857 11.1628C25.4603 11.0322 25.3905 10.9213 25.2762 10.8299C25.1618 10.7254 25.0348 10.6732 24.8951 10.6732H23.5804C23.4407 10.6732 23.3137 10.7254 23.1994 10.8299C23.085 10.9213 23.0152 11.0322 22.9898 11.1628L22.5897 13.3758V13.3954C22.5516 13.6304 22.5389 13.8066 22.5516 13.9241C22.577 14.0286 22.6087 14.1134 22.6468 14.1787C22.6976 14.2309 22.7357 14.2832 22.7611 14.3354C22.7992 14.3876 22.812 14.4725 22.7993 14.59H21.7894C21.7005 14.59 21.6307 14.5573 21.5799 14.492C21.529 14.4268 21.51 14.3484 21.5227 14.257C21.51 14.3484 21.4719 14.4268 21.4084 14.492C21.3449 14.5573 21.2687 14.59 21.1797 14.59H20.1699C20.1826 14.4725 20.2144 14.3876 20.2652 14.3354C20.316 14.2832 20.3732 14.2244 20.4367 14.1591C20.5002 14.0938 20.5637 14.009 20.6272 13.9045C20.6907 13.8001 20.7479 13.6369 20.7987 13.4149L21.6561 8.65606C21.6815 8.47328 21.6624 8.30355 21.5989 8.14688C21.5354 7.99021 21.4338 7.86618 21.2941 7.77479C21.4973 7.68339 21.6815 7.6377 21.8466 7.6377L22.8755 2.0563C22.9136 1.83435 22.9199 1.67115 22.8945 1.56671C22.8691 1.44921 22.8374 1.36434 22.7993 1.31212C22.7611 1.24684 22.723 1.18809 22.6849 1.13586C22.6468 1.08364 22.6405 0.998776 22.6659 0.881273H23.9424C24.133 0.907385 24.2282 1.01836 24.2282 1.2142C24.2282 1.12281 24.2536 1.051 24.3044 0.998776C24.368 0.933497 24.4378 0.894329 24.514 0.881273H25.8096C25.835 0.998776 25.8287 1.08364 25.7906 1.13586C25.7652 1.18809 25.7334 1.24684 25.6953 1.31212C25.6572 1.36434 25.6255 1.44921 25.6001 1.56671C25.5746 1.67115 25.581 1.83435 25.6191 2.0563L26.6289 7.6377C26.7305 7.6377 26.8258 7.65076 26.9147 7.67687C27.0036 7.70298 27.0925 7.73562 27.1815 7.77479C26.902 7.95757 26.7813 8.25133 26.8195 8.65606L27.6768 13.4149ZM23.1041 6.40392C23.1295 6.32558 23.1422 6.25377 23.1422 6.1885C23.1549 6.11016 23.1676 6.03835 23.1803 5.97307C23.2438 5.67279 23.2946 5.39209 23.3327 5.13097C23.3708 4.85679 23.409 4.60873 23.4471 4.38678C23.4725 4.28233 23.4852 4.17789 23.4852 4.07344C23.4979 3.96899 23.5106 3.86455 23.5233 3.7601C23.536 3.66871 23.5487 3.58384 23.5614 3.50551C23.5741 3.42717 23.5868 3.35537 23.5995 3.29009C23.6122 3.22481 23.6185 3.16606 23.6185 3.11383C23.6185 3.04855 23.6249 2.99633 23.6376 2.95716V2.87882L23.6185 2.95716C23.6058 2.99633 23.5931 3.04202 23.5804 3.09425C23.5677 3.14647 23.555 3.20522 23.5423 3.2705C23.5169 3.33578 23.4979 3.41412 23.4852 3.50551C23.4725 3.58384 23.4534 3.66218 23.428 3.74051C23.4026 3.84496 23.3772 3.94941 23.3518 4.05386C23.3391 4.1583 23.32 4.26275 23.2946 4.3672C23.2311 4.58915 23.1676 4.83068 23.1041 5.0918C23.0533 5.33986 22.9961 5.61404 22.9326 5.91432C22.9326 5.99266 22.9263 6.06446 22.9136 6.12974C22.9009 6.19502 22.8818 6.26683 22.8564 6.34517C22.8437 6.4235 22.831 6.50184 22.8183 6.58017C22.8056 6.64545 22.7929 6.71726 22.7802 6.79559C22.7421 6.93921 22.704 7.08935 22.6659 7.24602C22.6405 7.40269 22.6151 7.55936 22.5897 7.71603C22.5643 7.85965 22.5325 8.00979 22.4944 8.16646C22.469 8.32313 22.4436 8.47328 22.4182 8.61689C22.4055 8.65606 22.3991 8.69523 22.3991 8.73439C22.3991 8.76051 22.3928 8.79315 22.3801 8.83231C22.3547 8.93676 22.342 9.0151 22.342 9.06732C22.3039 9.19788 22.2785 9.34149 22.2658 9.49816C22.2404 9.64178 22.215 9.78539 22.1896 9.92901C22.1641 10.0726 22.1451 10.2032 22.1324 10.3207C22.0943 10.621 22.0562 10.869 22.0181 11.0649C21.9927 11.1693 21.9736 11.2738 21.9609 11.3782C21.9482 11.4827 21.9355 11.5871 21.9228 11.6916C21.8974 11.7829 21.8784 11.8743 21.8657 11.9657C21.8657 12.0441 21.8593 12.1159 21.8466 12.1812C21.8339 12.2464 21.8275 12.3052 21.8275 12.3574C21.8275 12.4096 21.8212 12.4553 21.8085 12.4945C21.8085 12.5206 21.8021 12.5402 21.7894 12.5532C21.7894 12.5532 21.7894 12.5598 21.7894 12.5728V12.5924C21.8021 12.5924 21.8085 12.5859 21.8085 12.5728C21.8085 12.5467 21.8148 12.5206 21.8275 12.4945C21.8402 12.4684 21.8466 12.4292 21.8466 12.377C21.8593 12.3117 21.8784 12.2464 21.9038 12.1812C21.9292 12.1159 21.9482 12.0441 21.9609 11.9657C21.9863 11.8874 22.0117 11.8025 22.0371 11.7111C22.0625 11.6197 22.0816 11.5218 22.0943 11.4174C22.1197 11.3129 22.1387 11.2085 22.1514 11.104C22.1768 10.9996 22.2023 10.8886 22.2277 10.7711C22.2658 10.6406 22.2975 10.51 22.3229 10.3794C22.3483 10.2489 22.3737 10.1118 22.3991 9.96818C22.4372 9.82456 22.4753 9.68095 22.5135 9.53733C22.5262 9.47205 22.5389 9.40677 22.5516 9.34149C22.5643 9.26316 22.577 9.19135 22.5897 9.12607L22.6468 8.89107C22.6595 8.8519 22.6659 8.81273 22.6659 8.77356C22.6659 8.7344 22.6722 8.69523 22.6849 8.65606C22.7103 8.51244 22.7421 8.36883 22.7802 8.22521C22.8183 8.06854 22.8501 7.91187 22.8755 7.7552C22.9009 7.61159 22.9263 7.46144 22.9517 7.30477C22.9771 7.1481 23.0025 6.99796 23.0279 6.85435C23.0406 6.77601 23.0533 6.69767 23.066 6.61934C23.0787 6.541 23.0914 6.4692 23.1041 6.40392ZM24.7236 9.75275C24.8633 9.7397 24.9713 9.68748 25.0475 9.59608C25.1364 9.49164 25.1682 9.36761 25.1428 9.22399L25.0285 8.65606C24.9777 8.47328 24.8887 8.30355 24.7617 8.14688C24.6474 7.99021 24.5077 7.86618 24.3426 7.77479C24.495 7.68339 24.6601 7.6377 24.8379 7.6377L24.2282 4.28886L23.6185 7.6377C23.7837 7.6377 23.9551 7.68339 24.133 7.77479C23.9551 7.86618 23.8027 7.99021 23.6757 8.14688C23.5614 8.30355 23.4852 8.47328 23.4471 8.65606L23.3518 9.22399C23.3264 9.36761 23.3518 9.49164 23.428 9.59608C23.5042 9.68748 23.6058 9.7397 23.7329 9.75275H24.7236ZM26.648 12.4945C26.648 12.5206 26.648 12.5402 26.648 12.5532C26.6607 12.5532 26.667 12.5598 26.667 12.5728V12.4945C26.6543 12.4553 26.648 12.4096 26.648 12.3574C26.648 12.3052 26.6416 12.2464 26.6289 12.1812C26.6162 12.1159 26.6035 12.0441 26.5908 11.9657C26.5908 11.8743 26.5781 11.7829 26.5527 11.6916C26.54 11.5871 26.5273 11.4827 26.5146 11.3782C26.5019 11.2738 26.4828 11.1693 26.4574 11.0649C26.4193 10.869 26.3812 10.621 26.3431 10.3207C26.3177 10.2032 26.2923 10.0726 26.2669 9.92901C26.2542 9.78539 26.2352 9.64178 26.2098 9.49816C26.1843 9.41983 26.1653 9.34802 26.1526 9.28274C26.1526 9.21746 26.1399 9.14566 26.1145 9.06732C26.1145 9.0151 26.1018 8.93676 26.0764 8.83231C26.0764 8.79315 26.07 8.76051 26.0573 8.73439C26.0573 8.69523 26.0573 8.65606 26.0573 8.61689C26.0319 8.47328 26.0002 8.32313 25.9621 8.16646C25.9367 8.00979 25.9113 7.85965 25.8859 7.71603C25.8604 7.55936 25.8287 7.40269 25.7906 7.24602C25.7652 7.08935 25.7334 6.93921 25.6953 6.79559C25.6826 6.71726 25.6699 6.64545 25.6572 6.58017C25.6445 6.50184 25.6318 6.4235 25.6191 6.34517C25.5937 6.26683 25.5746 6.19502 25.5619 6.12974C25.5492 6.06446 25.5365 5.99266 25.5238 5.91432C25.4603 5.61404 25.3968 5.33986 25.3333 5.0918C25.2825 4.83068 25.238 4.58915 25.1999 4.3672C25.1745 4.26275 25.1491 4.1583 25.1237 4.05386C25.0983 3.94941 25.0729 3.84496 25.0475 3.74051C25.0221 3.66218 24.9967 3.58384 24.9713 3.50551C24.9586 3.41412 24.9395 3.33578 24.9141 3.2705C24.9014 3.20522 24.8887 3.14647 24.876 3.09425C24.8633 3.04202 24.8506 2.99633 24.8379 2.95716L24.8189 2.87882V2.95716C24.8316 3.02244 24.8506 3.13342 24.876 3.29009C24.876 3.35537 24.8824 3.42717 24.8951 3.50551C24.9078 3.58384 24.9205 3.66871 24.9332 3.7601C24.9459 3.86455 24.9586 3.96899 24.9713 4.07344C24.984 4.17789 25.0031 4.28233 25.0285 4.38678C25.0666 4.60873 25.1047 4.85679 25.1428 5.13097C25.1809 5.39209 25.2253 5.67279 25.2762 5.97307C25.2889 6.03835 25.2952 6.11016 25.2952 6.1885C25.3079 6.25377 25.327 6.32558 25.3524 6.40392C25.3651 6.4692 25.3778 6.541 25.3905 6.61934C25.4032 6.69767 25.4159 6.77601 25.4286 6.85435C25.454 6.99796 25.4794 7.1481 25.5048 7.30477C25.5429 7.46144 25.5746 7.61159 25.6001 7.7552C25.6255 7.91187 25.6572 8.06854 25.6953 8.22521C25.7334 8.36883 25.7652 8.51244 25.7906 8.65606C25.8033 8.69523 25.8096 8.7344 25.8096 8.77356C25.8096 8.81273 25.816 8.8519 25.8287 8.89107L25.8859 9.12607C25.8986 9.19135 25.9113 9.26316 25.924 9.34149C25.9367 9.40677 25.9494 9.47205 25.9621 9.53733C26.0002 9.68095 26.0319 9.82456 26.0573 9.96818C26.0827 10.1118 26.1081 10.2489 26.1335 10.3794C26.1589 10.51 26.1843 10.6406 26.2098 10.7711C26.2479 10.8886 26.2796 10.9996 26.305 11.104C26.3304 11.2085 26.3558 11.3129 26.3812 11.4174C26.4066 11.5218 26.432 11.6197 26.4574 11.7111C26.4956 11.8939 26.5337 12.0506 26.5718 12.1812C26.5972 12.2464 26.6099 12.3117 26.6099 12.377C26.6226 12.4292 26.6353 12.4684 26.648 12.4945Z" fill="#F4EDE8"/>
<path d="M35.6709 15.4125C35.8107 15.4386 35.9059 15.4843 35.9567 15.5496C36.0203 15.6149 36.0647 15.6801 36.0901 15.7454C36.1155 15.8237 36.1282 15.9086 36.1282 16C35.7218 16 35.3407 15.9478 34.985 15.8433C34.6294 15.7389 34.3118 15.5692 34.0324 15.3342C33.7656 15.0991 33.5497 14.7923 33.3846 14.4137C33.2322 14.0351 33.1559 13.5716 33.1559 13.0233V10.3403C33.1559 10.1705 33.1496 9.96165 33.1369 9.71359C33.1242 9.46552 33.0797 9.23052 33.0035 9.00857C32.9273 8.78662 32.8066 8.59731 32.6415 8.44064C32.4891 8.27091 32.2604 8.18605 31.9556 8.18605H31.1744C31.0601 8.21216 30.9585 8.27744 30.8696 8.38189C30.7934 8.47328 30.7553 8.58425 30.7553 8.71481V13.3954C30.7553 13.6304 30.7743 13.8066 30.8124 13.9241C30.8632 14.0286 30.914 14.1134 30.9648 14.1787C31.0156 14.2309 31.0601 14.2832 31.0982 14.3354C31.149 14.3876 31.1744 14.4725 31.1744 14.59H30.1646C30.0884 14.59 30.0185 14.5573 29.955 14.492C29.8915 14.4268 29.8598 14.355 29.8598 14.2766C29.8598 14.355 29.828 14.4268 29.7645 14.492C29.7137 14.5573 29.6438 14.59 29.5549 14.59H28.5641C28.5641 14.4725 28.5832 14.3876 28.6213 14.3354C28.6721 14.2832 28.7229 14.2309 28.7737 14.1787C28.8245 14.1134 28.869 14.0286 28.9071 13.9241C28.9579 13.8197 28.9833 13.6565 28.9833 13.4345V8.65606C28.9452 8.25133 28.7674 7.95757 28.4498 7.77479C28.5896 7.68339 28.7674 7.6377 28.9833 7.6377V2.03672C28.9833 1.81477 28.9579 1.65157 28.9071 1.54712C28.869 1.44268 28.8245 1.36434 28.7737 1.31212C28.7229 1.24684 28.6721 1.18809 28.6213 1.13586C28.5832 1.08364 28.5641 0.998776 28.5641 0.881273H29.574C29.6502 0.881273 29.72 0.913913 29.7835 0.979192C29.8471 1.03142 29.8788 1.10322 29.8788 1.19462C29.8788 0.985721 29.9804 0.881273 30.1837 0.881273H31.9747C32.3811 0.881273 32.7622 0.959609 33.1178 1.11628C33.4735 1.27295 33.7847 1.48837 34.0514 1.76255C34.3182 2.02366 34.5278 2.33701 34.6802 2.70257C34.8326 3.06814 34.9152 3.45328 34.9279 3.85802V5.13097C34.9279 5.67932 34.8009 6.18197 34.5468 6.63892C34.2928 7.09588 33.9498 7.46144 33.518 7.73562C33.9498 7.99674 34.2928 8.3623 34.5468 8.83231C34.8009 9.28927 34.9279 9.79192 34.9279 10.3403V12.9449C34.9279 13.2191 34.9279 13.4998 34.9279 13.787C34.9406 14.0612 34.9723 14.3158 35.0231 14.5508C35.074 14.7727 35.1502 14.9621 35.2518 15.1187C35.3534 15.2754 35.4931 15.3733 35.6709 15.4125ZM33.9371 4.79804C33.9244 4.82415 33.9181 4.85679 33.9181 4.89596V5.34639C33.9054 5.39861 33.899 5.45084 33.899 5.50306C33.899 5.54223 33.899 5.5814 33.899 5.62056C33.899 5.64668 33.8927 5.66626 33.88 5.67932C33.88 5.69237 33.88 5.71196 33.88 5.73807V5.85557C33.8673 5.88168 33.8609 5.91432 33.8609 5.95349C33.8609 5.9796 33.8546 6.00571 33.8419 6.03182C33.8419 6.05794 33.8355 6.07752 33.8228 6.09058V6.12974L33.8037 6.16891C33.8037 6.16891 33.8164 6.16238 33.8419 6.14933V6.12974L33.8609 6.11016C33.8736 6.0971 33.88 6.09058 33.88 6.09058C33.88 6.07752 33.8863 6.06446 33.899 6.05141C33.9117 6.0253 33.9244 5.99918 33.9371 5.97307C33.9498 5.93391 33.9625 5.90127 33.9752 5.87515C33.9879 5.84904 33.9943 5.83599 33.9943 5.83599C33.9943 5.82293 34.0006 5.80335 34.0133 5.77723C34.026 5.75112 34.0324 5.73154 34.0324 5.71848C34.0324 5.69237 34.0387 5.66626 34.0514 5.64015C34.0641 5.61404 34.0705 5.59445 34.0705 5.5814C34.0705 5.56834 34.0768 5.54876 34.0895 5.52264C34.0895 5.49653 34.0895 5.47695 34.0895 5.46389C34.1022 5.43778 34.1086 5.41167 34.1086 5.38556C34.1213 5.33333 34.1277 5.28111 34.1277 5.22889C34.1404 5.17666 34.1531 5.12444 34.1658 5.07222C34.1785 5.03305 34.1848 4.9743 34.1848 4.89596C34.1848 4.86985 34.1848 4.84374 34.1848 4.81763C34.1975 4.79151 34.2039 4.7654 34.2039 4.73929V4.05386C34.2039 3.97552 34.1975 3.91677 34.1848 3.8776V3.79927C34.1848 3.77315 34.1785 3.7601 34.1658 3.7601C34.1658 3.74704 34.1658 3.72746 34.1658 3.70135C34.1658 3.63607 34.1531 3.53815 34.1277 3.40759C34.1149 3.38148 34.1086 3.35537 34.1086 3.32925C34.1086 3.30314 34.1022 3.27703 34.0895 3.25092C34.0895 3.23786 34.0832 3.23133 34.0705 3.23133C34.0705 3.21828 34.0705 3.20522 34.0705 3.19217C34.0705 3.17911 34.0641 3.17258 34.0514 3.17258C34.0514 3.15953 34.0514 3.14647 34.0514 3.13342C34.0387 3.1073 34.0324 3.08772 34.0324 3.07466C34.0324 3.06161 34.026 3.04202 34.0133 3.01591C34.0006 2.9898 33.9943 2.97022 33.9943 2.95716C33.9943 2.9441 33.9879 2.92452 33.9752 2.89841C33.9625 2.88535 33.9562 2.8723 33.9562 2.85924C33.9562 2.84619 33.9498 2.83313 33.9371 2.82007C33.9117 2.76785 33.899 2.74174 33.899 2.74174C33.8863 2.72868 33.88 2.72216 33.88 2.72216C33.88 2.7091 33.8736 2.69604 33.8609 2.68299C33.8482 2.66993 33.8419 2.65688 33.8419 2.64382C33.8292 2.63076 33.8228 2.61771 33.8228 2.60465H33.8037C33.8037 2.60465 33.8101 2.61771 33.8228 2.64382V2.68299C33.8355 2.69604 33.8419 2.72215 33.8419 2.76132C33.8419 2.77438 33.8419 2.78743 33.8419 2.80049C33.8546 2.80049 33.8609 2.81355 33.8609 2.83966C33.8609 2.87883 33.8673 2.91146 33.88 2.93758V3.0355C33.88 3.06161 33.88 3.08119 33.88 3.09425C33.8927 3.1073 33.899 3.12689 33.899 3.153C33.899 3.2705 33.9054 3.36189 33.9181 3.42717V3.74051C33.9308 3.80579 33.9371 3.91024 33.9371 4.05386V4.79804ZM30.0122 6.81518C30.0122 6.7499 30.0058 6.67809 29.9931 6.59976C29.9931 6.52142 29.9931 6.44309 29.9931 6.36475V5.93391C29.9804 5.64668 29.9741 5.3725 29.9741 5.11138C29.9741 4.85027 29.9677 4.6022 29.955 4.3672C29.9423 4.26275 29.936 4.1583 29.936 4.05386C29.936 3.94941 29.9296 3.85149 29.9169 3.7601C29.9169 3.65565 29.9106 3.56426 29.8979 3.48592C29.8979 3.40759 29.8979 3.33578 29.8979 3.2705C29.8979 3.20522 29.8915 3.14647 29.8788 3.09425C29.8788 3.04202 29.8788 2.99633 29.8788 2.95716V2.85924C29.8661 2.85924 29.8598 2.86577 29.8598 2.87882V2.95716C29.8598 2.99633 29.8534 3.04202 29.8407 3.09425C29.8407 3.14647 29.8407 3.20522 29.8407 3.2705C29.8407 3.33578 29.8344 3.40759 29.8217 3.48592C29.8217 3.56426 29.8217 3.65565 29.8217 3.7601C29.809 3.85149 29.8026 3.94941 29.8026 4.05386C29.8026 4.1583 29.7962 4.26275 29.7835 4.3672C29.7708 4.6022 29.7645 4.85027 29.7645 5.11138C29.7645 5.3725 29.7581 5.64668 29.7454 5.93391V6.36475C29.7454 6.44309 29.7391 6.52142 29.7264 6.59976C29.7264 6.67809 29.7264 6.7499 29.7264 6.81518V8.63648C29.7264 8.74092 29.7327 8.81926 29.7454 8.87148V9.51775C29.7454 9.66136 29.7454 9.80498 29.7454 9.94859C29.7581 10.0792 29.7645 10.2097 29.7645 10.3403C29.7645 10.4839 29.7645 10.6144 29.7645 10.7319C29.7772 10.8495 29.7835 10.967 29.7835 11.0845C29.7962 11.202 29.8026 11.3129 29.8026 11.4174C29.8026 11.5088 29.809 11.6067 29.8217 11.7111C29.8217 11.8025 29.8217 11.8874 29.8217 11.9657C29.8344 12.0441 29.8407 12.1159 29.8407 12.1812C29.8407 12.2464 29.8407 12.3117 29.8407 12.377C29.8534 12.4292 29.8598 12.4684 29.8598 12.4945V12.5924C29.8598 12.6055 29.8661 12.612 29.8788 12.612V12.4945C29.8788 12.4684 29.8788 12.4292 29.8788 12.377C29.8915 12.3117 29.8979 12.2464 29.8979 12.1812C29.8979 12.1159 29.8979 12.0441 29.8979 11.9657C29.9106 11.8874 29.9169 11.8025 29.9169 11.7111C29.9296 11.6067 29.936 11.5088 29.936 11.4174C29.936 11.3129 29.9423 11.202 29.955 11.0845C29.955 10.967 29.955 10.8495 29.955 10.7319C29.9677 10.6144 29.9741 10.4839 29.9741 10.3403C29.9741 10.2097 29.9741 10.0792 29.9741 9.94859C29.9868 9.80498 29.9931 9.66136 29.9931 9.51775V9.0869C29.9931 8.98246 29.9995 8.91065 30.0122 8.87148V6.81518ZM33.1559 3.93635C33.1559 3.76663 33.1496 3.55773 33.1369 3.30967C33.1242 3.06161 33.0797 2.8266 33.0035 2.60465C32.9273 2.3827 32.8066 2.19339 32.6415 2.03672C32.4891 1.86699 32.2604 1.78213 31.9556 1.78213H31.2697C31.13 1.79519 31.0093 1.85394 30.9077 1.95838C30.8061 2.06283 30.7553 2.18686 30.7553 2.33048V6.73684C30.7553 6.88046 30.8061 7.00449 30.9077 7.10894C31.0093 7.21338 31.13 7.26561 31.2697 7.26561H31.9556C32.2604 7.26561 32.4891 7.18727 32.6415 7.0306C32.8066 6.87393 32.9273 6.68462 33.0035 6.46267C33.0797 6.22766 33.1242 5.99266 33.1369 5.75765C33.1496 5.50959 33.1559 5.30069 33.1559 5.13097V3.93635ZM34.4325 14.6683C34.4325 14.6683 34.4261 14.6618 34.4134 14.6487L34.3944 14.6291C34.3817 14.603 34.369 14.5769 34.3563 14.5508C34.3563 14.5247 34.3436 14.4986 34.3182 14.4725C34.3055 14.4333 34.2928 14.3941 34.2801 14.355C34.2674 14.3027 34.2547 14.244 34.242 14.1787C34.2166 14.0481 34.2039 13.9241 34.2039 13.8066C34.1912 13.7413 34.1848 13.6761 34.1848 13.6108C34.1848 13.5324 34.1848 13.4476 34.1848 13.3562V12.3182C34.1848 12.2268 34.1848 12.1355 34.1848 12.0441C34.1848 11.9527 34.1912 11.8548 34.2039 11.7503C34.2039 11.6589 34.2039 11.5675 34.2039 11.4761C34.2039 11.3847 34.1975 11.2934 34.1848 11.202V10.9278C34.1848 10.7972 34.1785 10.7058 34.1658 10.6536C34.1658 10.5622 34.1594 10.4774 34.1467 10.399C34.1467 10.3076 34.1404 10.2228 34.1277 10.1444C34.1022 9.96165 34.0768 9.80498 34.0514 9.67442C34.0387 9.60914 34.026 9.55039 34.0133 9.49816C34.0006 9.43289 33.9816 9.36761 33.9562 9.30233C33.9308 9.23705 33.9117 9.18482 33.899 9.14566C33.8863 9.10649 33.8673 9.06732 33.8419 9.02815C33.8164 8.98899 33.7974 8.95634 33.7847 8.93023C33.772 8.90412 33.7593 8.87801 33.7466 8.8519C33.7339 8.8519 33.7212 8.84537 33.7085 8.83231C33.6958 8.83231 33.6894 8.82579 33.6894 8.81273L33.7085 8.83231C33.7085 8.84537 33.7148 8.85843 33.7275 8.87148C33.7275 8.88454 33.7275 8.89759 33.7275 8.91065C33.7402 8.91065 33.7466 8.92371 33.7466 8.94982C33.7593 8.96287 33.7656 8.97593 33.7656 8.98899C33.7656 9.00204 33.772 9.02162 33.7847 9.04774C33.7974 9.09996 33.8164 9.19135 33.8419 9.32191C33.8546 9.38719 33.8609 9.45247 33.8609 9.51775C33.8736 9.58303 33.8863 9.64831 33.899 9.71359C33.899 9.77887 33.899 9.85067 33.899 9.92901C33.9117 9.99429 33.9181 10.0726 33.9181 10.164V12.5924C33.9181 12.6446 33.9181 12.6903 33.9181 12.7295C33.9308 12.7687 33.9371 12.8144 33.9371 12.8666C33.9371 12.958 33.9371 13.0494 33.9371 13.1408C33.9498 13.2191 33.9625 13.2974 33.9752 13.3758C33.9879 13.4541 33.9943 13.5324 33.9943 13.6108C34.007 13.6891 34.0197 13.7609 34.0324 13.8262C34.0578 13.9045 34.0768 13.9763 34.0895 14.0416C34.1022 14.0938 34.1213 14.1526 34.1467 14.2179C34.1721 14.2831 34.1912 14.3354 34.2039 14.3745C34.2166 14.4137 34.2356 14.4529 34.261 14.492L34.2991 14.5312C34.3118 14.5443 34.3182 14.5573 34.3182 14.5704C34.3182 14.5704 34.3245 14.5769 34.3372 14.59L34.4134 14.6683H34.4325Z" fill="#F4EDE8"/>
<path d="M41.3839 5.13097C41.3839 5.67932 41.2569 6.18197 41.0028 6.63892C40.7488 7.09588 40.4058 7.46144 39.974 7.73562C40.4058 7.99674 40.7488 8.3623 41.0028 8.83231C41.2569 9.28927 41.3839 9.79192 41.3839 10.3403V11.6132C41.3712 12.031 41.2886 12.4227 41.1362 12.7883C40.9838 13.1408 40.7742 13.4541 40.5075 13.7283C40.2407 13.9894 39.9295 14.1983 39.5739 14.355C39.2182 14.5116 38.8371 14.59 38.4307 14.59H36.6206C36.5444 14.59 36.4746 14.5573 36.411 14.492C36.3475 14.4268 36.3158 14.355 36.3158 14.2766C36.3158 14.355 36.284 14.4268 36.2205 14.492C36.1697 14.5573 36.0998 14.59 36.0109 14.59H35.0202C35.0202 14.4725 35.0392 14.3876 35.0773 14.3354C35.1281 14.2832 35.1789 14.2309 35.2298 14.1787C35.2806 14.1134 35.325 14.0286 35.3631 13.9241C35.4139 13.8197 35.4393 13.6565 35.4393 13.4345V8.65606C35.4012 8.25133 35.2234 7.95757 34.9058 7.77479C35.0456 7.68339 35.2234 7.6377 35.4393 7.6377V2.03672C35.4393 1.81477 35.4139 1.65157 35.3631 1.54712C35.325 1.44268 35.2806 1.36434 35.2298 1.31212C35.1789 1.24684 35.1281 1.18809 35.0773 1.13586C35.0392 1.08364 35.0202 0.998776 35.0202 0.881273H36.03C36.1062 0.881273 36.1761 0.913913 36.2396 0.979192C36.3031 1.03142 36.3348 1.10322 36.3348 1.19462C36.3348 0.985721 36.4364 0.881273 36.6397 0.881273H38.4307C38.8371 0.881273 39.2182 0.959609 39.5739 1.11628C39.9295 1.27295 40.2407 1.48837 40.5075 1.76255C40.7742 2.02366 40.9838 2.33701 41.1362 2.70257C41.2886 3.06814 41.3712 3.45328 41.3839 3.85802V5.13097ZM36.4682 6.81518C36.4682 6.7499 36.4619 6.67809 36.4492 6.59976C36.4492 6.52142 36.4492 6.44309 36.4492 6.36475V5.93391C36.4364 5.64668 36.4301 5.3725 36.4301 5.11138C36.4301 4.85027 36.4237 4.6022 36.411 4.3672C36.3983 4.26275 36.392 4.1583 36.392 4.05386C36.392 3.94941 36.3856 3.85149 36.3729 3.7601C36.3729 3.65565 36.3666 3.56426 36.3539 3.48592C36.3539 3.40759 36.3539 3.33578 36.3539 3.2705C36.3539 3.20522 36.3475 3.14647 36.3348 3.09425C36.3348 3.04202 36.3348 2.99633 36.3348 2.95716V2.85924C36.3221 2.85924 36.3158 2.86577 36.3158 2.87882V2.95716C36.3158 2.99633 36.3094 3.04202 36.2967 3.09425C36.2967 3.14647 36.2967 3.20522 36.2967 3.2705C36.2967 3.33578 36.2904 3.40759 36.2777 3.48592C36.2777 3.56426 36.2777 3.65565 36.2777 3.7601C36.265 3.85149 36.2586 3.94941 36.2586 4.05386C36.2586 4.1583 36.2523 4.26275 36.2396 4.3672C36.2269 4.6022 36.2205 4.85027 36.2205 5.11138C36.2205 5.3725 36.2142 5.64668 36.2015 5.93391V6.36475C36.2015 6.44309 36.1951 6.52142 36.1824 6.59976C36.1824 6.67809 36.1824 6.7499 36.1824 6.81518V8.63648C36.1824 8.74092 36.1888 8.81926 36.2015 8.87148V9.51775C36.2015 9.66136 36.2015 9.80498 36.2015 9.94859C36.2142 10.0792 36.2205 10.2097 36.2205 10.3403C36.2205 10.4839 36.2205 10.6144 36.2205 10.7319C36.2332 10.8495 36.2396 10.967 36.2396 11.0845C36.2523 11.202 36.2586 11.3129 36.2586 11.4174C36.2586 11.5088 36.265 11.6067 36.2777 11.7111C36.2777 11.8025 36.2777 11.8874 36.2777 11.9657C36.2904 12.0441 36.2967 12.1159 36.2967 12.1812C36.2967 12.2464 36.2967 12.3117 36.2967 12.377C36.3094 12.4292 36.3158 12.4684 36.3158 12.4945V12.5924C36.3158 12.6055 36.3221 12.612 36.3348 12.612V12.4945C36.3348 12.4684 36.3348 12.4292 36.3348 12.377C36.3475 12.3117 36.3539 12.2464 36.3539 12.1812C36.3539 12.1159 36.3539 12.0441 36.3539 11.9657C36.3666 11.8874 36.3729 11.8025 36.3729 11.7111C36.3856 11.6067 36.392 11.5088 36.392 11.4174C36.392 11.3129 36.3983 11.202 36.411 11.0845C36.411 10.967 36.411 10.8495 36.411 10.7319C36.4237 10.6144 36.4301 10.4839 36.4301 10.3403C36.4301 10.2097 36.4301 10.0792 36.4301 9.94859C36.4428 9.80498 36.4492 9.66136 36.4492 9.51775V9.0869C36.4492 8.98246 36.4555 8.91065 36.4682 8.87148V6.81518ZM40.3931 11.3586C40.3804 11.3847 40.3741 11.4174 40.3741 11.4565V11.907C40.3614 11.9592 40.355 12.0114 40.355 12.0636C40.355 12.1028 40.355 12.142 40.355 12.1812C40.355 12.2073 40.3487 12.2268 40.336 12.2399C40.336 12.253 40.336 12.2725 40.336 12.2987V12.4162C40.3233 12.4423 40.3169 12.4749 40.3169 12.5141C40.3169 12.5402 40.3106 12.5663 40.2979 12.5924C40.2979 12.6185 40.2915 12.6381 40.2788 12.6512V12.6903L40.2598 12.7295C40.2598 12.7295 40.2725 12.723 40.2979 12.7099V12.6903L40.3169 12.6707C40.3296 12.6577 40.336 12.6512 40.336 12.6512C40.336 12.6381 40.3423 12.6251 40.355 12.612C40.3677 12.5859 40.3804 12.5598 40.3931 12.5337C40.4058 12.4945 40.4185 12.4619 40.4312 12.4357C40.4439 12.4096 40.4503 12.3966 40.4503 12.3966C40.4503 12.3835 40.4566 12.3639 40.4694 12.3378C40.4821 12.3117 40.4884 12.2921 40.4884 12.2791C40.4884 12.266 40.4948 12.2464 40.5075 12.2203C40.5202 12.1942 40.5265 12.1746 40.5265 12.1616C40.5265 12.1355 40.5329 12.1093 40.5456 12.0832C40.5456 12.0571 40.5456 12.0375 40.5456 12.0245C40.5583 11.9984 40.5646 11.9723 40.5646 11.9461C40.5773 11.8939 40.5837 11.8417 40.5837 11.7895C40.5964 11.7373 40.6091 11.685 40.6218 11.6328C40.6345 11.5936 40.6408 11.5349 40.6408 11.4565C40.6408 11.4304 40.6408 11.4043 40.6408 11.3782C40.6535 11.3521 40.6599 11.326 40.6599 11.2999V10.6144C40.6599 10.5361 40.6535 10.4774 40.6408 10.4382V10.3599C40.6408 10.3337 40.6345 10.3207 40.6218 10.3207C40.6218 10.3076 40.6218 10.2946 40.6218 10.2815C40.6218 10.2162 40.6154 10.164 40.6027 10.1248C40.6027 10.0726 40.5964 10.0204 40.5837 9.96818C40.571 9.94207 40.5646 9.91595 40.5646 9.88984C40.5646 9.86373 40.5583 9.83762 40.5456 9.81151C40.5456 9.79845 40.5392 9.79192 40.5265 9.79192C40.5265 9.77887 40.5265 9.76581 40.5265 9.75275C40.5265 9.7397 40.5202 9.73317 40.5075 9.73317C40.5075 9.72011 40.5075 9.70706 40.5075 9.694C40.4948 9.66789 40.4884 9.64831 40.4884 9.63525C40.4884 9.6222 40.4821 9.60261 40.4694 9.5765C40.4566 9.55039 40.4503 9.5308 40.4503 9.51775C40.4503 9.50469 40.4439 9.48511 40.4312 9.459C40.4185 9.44594 40.4122 9.43289 40.4122 9.41983C40.4122 9.40677 40.4058 9.39372 40.3931 9.38066C40.3677 9.32844 40.355 9.30233 40.355 9.30233C40.3423 9.28927 40.336 9.28274 40.336 9.28274C40.336 9.26969 40.3296 9.25663 40.3169 9.24357C40.3042 9.23052 40.2979 9.21746 40.2979 9.20441L40.2598 9.16524C40.2598 9.16524 40.2661 9.1783 40.2788 9.20441V9.24357C40.2915 9.25663 40.2979 9.28274 40.2979 9.32191C40.2979 9.33497 40.2979 9.34802 40.2979 9.36108C40.3106 9.36108 40.3169 9.37413 40.3169 9.40025C40.3169 9.43941 40.3233 9.47205 40.336 9.49816V9.59608C40.336 9.6222 40.336 9.64178 40.336 9.65484C40.3487 9.66789 40.355 9.68748 40.355 9.71359C40.355 9.83109 40.3614 9.92248 40.3741 9.98776V10.3011C40.3868 10.3664 40.3931 10.4708 40.3931 10.6144V11.3586ZM39.612 10.3403C39.612 10.1705 39.6056 9.96165 39.5929 9.71359C39.5802 9.46552 39.5358 9.23052 39.4595 9.00857C39.3833 8.78662 39.2627 8.59731 39.0975 8.44064C38.9451 8.27091 38.7165 8.18605 38.4116 8.18605H37.7257C37.586 8.1991 37.4653 8.25785 37.3637 8.3623C37.2621 8.46675 37.2113 8.59078 37.2113 8.73439V13.1408C37.2113 13.2844 37.2621 13.4084 37.3637 13.5129C37.4653 13.6173 37.586 13.6695 37.7257 13.6695H38.4116C38.7165 13.6695 38.9451 13.5912 39.0975 13.4345C39.2627 13.2778 39.3833 13.0885 39.4595 12.8666C39.5358 12.6316 39.5802 12.3966 39.5929 12.1616C39.6056 11.9135 39.612 11.7046 39.612 11.5349V10.3403ZM39.612 3.93635C39.612 3.76663 39.6056 3.55773 39.5929 3.30967C39.5802 3.06161 39.5358 2.8266 39.4595 2.60465C39.3833 2.3827 39.2627 2.19339 39.0975 2.03672C38.9451 1.86699 38.7165 1.78213 38.4116 1.78213H37.7257C37.586 1.79519 37.4653 1.85394 37.3637 1.95838C37.2621 2.06283 37.2113 2.18686 37.2113 2.33048V6.73684C37.2113 6.88046 37.2621 7.00449 37.3637 7.10894C37.4653 7.21338 37.586 7.26561 37.7257 7.26561H38.4116C38.7165 7.26561 38.9451 7.18727 39.0975 7.0306C39.2627 6.87393 39.3833 6.68462 39.4595 6.46267C39.5358 6.22766 39.5802 5.99266 39.5929 5.75765C39.6056 5.50959 39.612 5.30069 39.612 5.13097V3.93635ZM40.4312 5.87515C40.4439 5.84904 40.4503 5.83599 40.4503 5.83599C40.4503 5.82293 40.4566 5.80335 40.4694 5.77723C40.4821 5.75112 40.4884 5.73154 40.4884 5.71848C40.4884 5.69237 40.4948 5.66626 40.5075 5.64015C40.5202 5.61404 40.5265 5.59445 40.5265 5.5814C40.5265 5.56834 40.5329 5.54876 40.5456 5.52264C40.5456 5.49653 40.5456 5.47695 40.5456 5.46389C40.5583 5.43778 40.5646 5.41167 40.5646 5.38556C40.5773 5.33333 40.5837 5.28111 40.5837 5.22889C40.5964 5.17666 40.6091 5.12444 40.6218 5.07222C40.6345 5.03305 40.6408 4.9743 40.6408 4.89596C40.6408 4.86985 40.6408 4.84374 40.6408 4.81763C40.6535 4.79151 40.6599 4.7654 40.6599 4.73929V4.05386C40.6599 3.97552 40.6535 3.91677 40.6408 3.8776V3.79927C40.6408 3.77315 40.6345 3.7601 40.6218 3.7601C40.6218 3.74704 40.6218 3.72746 40.6218 3.70135C40.6218 3.63607 40.6091 3.53815 40.5837 3.40759C40.571 3.38148 40.5646 3.35537 40.5646 3.32925C40.5646 3.30314 40.5583 3.27703 40.5456 3.25092C40.5456 3.23786 40.5392 3.23133 40.5265 3.23133C40.5265 3.21828 40.5265 3.20522 40.5265 3.19217C40.5265 3.17911 40.5202 3.17258 40.5075 3.17258C40.5075 3.15953 40.5075 3.14647 40.5075 3.13342C40.4948 3.1073 40.4884 3.08772 40.4884 3.07466C40.4884 3.06161 40.4821 3.04202 40.4694 3.01591C40.4566 2.9898 40.4503 2.97022 40.4503 2.95716C40.4503 2.9441 40.4439 2.92452 40.4312 2.89841C40.4185 2.88535 40.4122 2.8723 40.4122 2.85924C40.4122 2.84619 40.4058 2.83313 40.3931 2.82007C40.3677 2.76785 40.355 2.74174 40.355 2.74174C40.3423 2.72868 40.336 2.72216 40.336 2.72216C40.336 2.7091 40.3296 2.69604 40.3169 2.68299C40.3042 2.66993 40.2979 2.65688 40.2979 2.64382C40.2852 2.63076 40.2788 2.61771 40.2788 2.60465H40.2598C40.2598 2.60465 40.2661 2.61771 40.2788 2.64382V2.68299C40.2915 2.69604 40.2979 2.72215 40.2979 2.76132C40.2979 2.77438 40.2979 2.78743 40.2979 2.80049C40.3106 2.80049 40.3169 2.81355 40.3169 2.83966C40.3169 2.87883 40.3233 2.91146 40.336 2.93758V3.0355C40.336 3.06161 40.336 3.08119 40.336 3.09425C40.3487 3.1073 40.355 3.12689 40.355 3.153C40.355 3.2705 40.3614 3.36189 40.3741 3.42717V3.74051C40.3868 3.80579 40.3931 3.91024 40.3931 4.05386V4.79804C40.3804 4.82415 40.3741 4.85679 40.3741 4.89596V5.34639C40.3614 5.39861 40.355 5.45084 40.355 5.50306C40.355 5.54223 40.355 5.5814 40.355 5.62056C40.355 5.64668 40.3487 5.66626 40.336 5.67932C40.336 5.69237 40.336 5.71196 40.336 5.73807V5.85557C40.3233 5.88168 40.3169 5.91432 40.3169 5.95349C40.3169 5.9796 40.3106 6.00571 40.2979 6.03182C40.2979 6.05794 40.2915 6.07752 40.2788 6.09058V6.12974L40.2598 6.16891C40.2598 6.16891 40.2725 6.16238 40.2979 6.14933V6.12974L40.3169 6.11016C40.3296 6.0971 40.336 6.09058 40.336 6.09058C40.336 6.07752 40.3423 6.06446 40.355 6.05141C40.3677 6.0253 40.3804 5.99918 40.3931 5.97307C40.4058 5.93391 40.4185 5.90127 40.4312 5.87515Z" fill="#F4EDE8"/>
<path d="M47.878 13.3954C47.878 13.6304 47.8971 13.8066 47.9352 13.9241C47.986 14.0286 48.0368 14.1134 48.0876 14.1787C48.1384 14.2309 48.1829 14.2832 48.221 14.3354C48.2718 14.3876 48.2972 14.4725 48.2972 14.59H43.1148C43.0385 14.59 42.9687 14.5573 42.9052 14.492C42.8417 14.4268 42.8099 14.355 42.8099 14.2766C42.8099 14.355 42.7781 14.4268 42.7146 14.492C42.6638 14.5573 42.594 14.59 42.5051 14.59H41.5143C41.5143 14.4725 41.5333 14.3876 41.5715 14.3354C41.6223 14.2832 41.6731 14.2309 41.7239 14.1787C41.7747 14.1134 41.8191 14.0286 41.8573 13.9241C41.9081 13.8197 41.9335 13.6565 41.9335 13.4345V8.65606C41.8954 8.25133 41.7175 7.95757 41.4 7.77479C41.5397 7.68339 41.7175 7.6377 41.9335 7.6377V2.03672C41.9335 1.81477 41.9081 1.65157 41.8573 1.54712C41.8191 1.44268 41.7747 1.36434 41.7239 1.31212C41.6731 1.24684 41.6223 1.18809 41.5715 1.13586C41.5333 1.08364 41.5143 0.998776 41.5143 0.881273H42.5241C42.6003 0.881273 42.6702 0.913913 42.7337 0.979192C42.7972 1.03142 42.829 1.10322 42.829 1.19462C42.829 0.985721 42.9306 0.881273 43.1338 0.881273H48.2972C48.2972 0.998776 48.2718 1.08364 48.221 1.13586C48.1829 1.18809 48.1384 1.24684 48.0876 1.31212C48.0368 1.36434 47.986 1.44921 47.9352 1.56671C47.8971 1.67115 47.878 1.84088 47.878 2.07589V4.68054C47.4335 4.68054 47.0905 4.59568 46.8492 4.42595C46.6205 4.24317 46.449 4.0408 46.3347 3.81885C46.195 3.57079 46.1188 3.27703 46.1061 2.93758V2.33048C46.1061 2.18686 46.0553 2.06283 45.9537 1.95838C45.852 1.85394 45.7314 1.79519 45.5917 1.78213H44.2198C44.0801 1.79519 43.9594 1.85394 43.8578 1.95838C43.7562 2.06283 43.7054 2.18686 43.7054 2.33048V6.73684C43.7054 6.88046 43.7562 7.00449 43.8578 7.10894C43.9594 7.21338 44.0801 7.26561 44.2198 7.26561H44.3532C44.4929 7.26561 44.6072 7.21338 44.6962 7.10894C44.7978 7.00449 44.8486 6.88046 44.8486 6.73684V6.71726C44.8613 6.52142 44.9121 6.35169 45.001 6.20808C45.0772 6.07752 45.1915 5.96002 45.344 5.85557C45.4964 5.75112 45.7187 5.6989 46.0108 5.6989V9.75275C45.7187 9.75275 45.4964 9.70053 45.344 9.59608C45.1915 9.49164 45.0772 9.37413 45.001 9.24357C44.9121 9.09996 44.8613 8.93023 44.8486 8.73439C44.8486 8.59078 44.7978 8.46675 44.6962 8.3623C44.6072 8.25785 44.4929 8.1991 44.3532 8.18605H44.2198C44.0801 8.1991 43.9594 8.25785 43.8578 8.3623C43.7562 8.46675 43.7054 8.59078 43.7054 8.73439V13.1408C43.7054 13.2844 43.7562 13.4084 43.8578 13.5129C43.9594 13.6173 44.0801 13.6695 44.2198 13.6695H45.5917C45.7314 13.6695 45.852 13.6173 45.9537 13.5129C46.0553 13.4084 46.1061 13.2844 46.1061 13.1408V12.5141C46.1188 12.1877 46.195 11.9004 46.3347 11.6524C46.449 11.4304 46.6205 11.2281 46.8492 11.0453C47.0905 10.8625 47.4335 10.7711 47.878 10.7711V13.3954ZM42.9623 6.81518C42.9623 6.7499 42.956 6.67809 42.9433 6.59976C42.9433 6.52142 42.9433 6.44309 42.9433 6.36475V5.93391C42.9306 5.64668 42.9242 5.3725 42.9242 5.11138C42.9242 4.85027 42.9179 4.6022 42.9052 4.3672C42.8925 4.26275 42.8861 4.1583 42.8861 4.05386C42.8861 3.94941 42.8798 3.85149 42.8671 3.7601C42.8671 3.65565 42.8607 3.56426 42.848 3.48592C42.848 3.40759 42.848 3.33578 42.848 3.2705C42.848 3.20522 42.8417 3.14647 42.829 3.09425C42.829 3.04202 42.829 2.99633 42.829 2.95716V2.85924C42.8163 2.85924 42.8099 2.86577 42.8099 2.87882V2.95716C42.8099 2.99633 42.8036 3.04202 42.7908 3.09425C42.7908 3.14647 42.7908 3.20522 42.7908 3.2705C42.7908 3.33578 42.7845 3.40759 42.7718 3.48592C42.7718 3.56426 42.7718 3.65565 42.7718 3.7601C42.7591 3.85149 42.7527 3.94941 42.7527 4.05386C42.7527 4.1583 42.7464 4.26275 42.7337 4.3672C42.721 4.6022 42.7146 4.85027 42.7146 5.11138C42.7146 5.3725 42.7083 5.64668 42.6956 5.93391V6.36475C42.6956 6.44309 42.6892 6.52142 42.6765 6.59976C42.6765 6.67809 42.6765 6.7499 42.6765 6.81518V8.63648C42.6765 8.74092 42.6829 8.81926 42.6956 8.87148V9.51775C42.6956 9.66136 42.6956 9.80498 42.6956 9.94859C42.7083 10.0792 42.7146 10.2097 42.7146 10.3403C42.7146 10.4839 42.7146 10.6144 42.7146 10.7319C42.7273 10.8495 42.7337 10.967 42.7337 11.0845C42.7464 11.202 42.7527 11.3129 42.7527 11.4174C42.7527 11.5088 42.7591 11.6067 42.7718 11.7111C42.7718 11.8025 42.7718 11.8874 42.7718 11.9657C42.7845 12.0441 42.7908 12.1159 42.7908 12.1812C42.7908 12.2464 42.7908 12.3117 42.7908 12.377C42.8036 12.4292 42.8099 12.4684 42.8099 12.4945V12.5924C42.8099 12.6055 42.8163 12.612 42.829 12.612V12.4945C42.829 12.4684 42.829 12.4292 42.829 12.377C42.8417 12.3117 42.848 12.2464 42.848 12.1812C42.848 12.1159 42.848 12.0441 42.848 11.9657C42.8607 11.8874 42.8671 11.8025 42.8671 11.7111C42.8798 11.6067 42.8861 11.5088 42.8861 11.4174C42.8861 11.3129 42.8925 11.202 42.9052 11.0845C42.9052 10.967 42.9052 10.8495 42.9052 10.7319C42.9179 10.6144 42.9242 10.4839 42.9242 10.3403C42.9242 10.2097 42.9242 10.0792 42.9242 9.94859C42.9369 9.80498 42.9433 9.66136 42.9433 9.51775V9.0869C42.9433 8.98246 42.9496 8.91065 42.9623 8.87148V6.81518Z" fill="#F4EDE8"/>
<path d="M55.5427 15.4125C55.6824 15.4386 55.7777 15.4843 55.8285 15.5496C55.892 15.6149 55.9365 15.6801 55.9619 15.7454C55.9873 15.8237 56 15.9086 56 16C55.5935 16 55.2125 15.9478 54.8568 15.8433C54.5012 15.7389 54.1836 15.5692 53.9042 15.3342C53.6374 15.0991 53.4215 14.7923 53.2564 14.4137C53.1039 14.0351 53.0277 13.5716 53.0277 13.0233V10.3403C53.0277 10.1705 53.0214 9.96165 53.0087 9.71359C52.996 9.46552 52.9515 9.23052 52.8753 9.00857C52.7991 8.78662 52.6784 8.59731 52.5133 8.44064C52.3609 8.27091 52.1322 8.18605 51.8274 8.18605H51.0462C50.9319 8.21216 50.8303 8.27744 50.7413 8.38189C50.6651 8.47328 50.627 8.58425 50.627 8.71481V13.3954C50.627 13.6304 50.6461 13.8066 50.6842 13.9241C50.735 14.0286 50.7858 14.1134 50.8366 14.1787C50.8874 14.2309 50.9319 14.2832 50.97 14.3354C51.0208 14.3876 51.0462 14.4725 51.0462 14.59H50.0364C49.9602 14.59 49.8903 14.5573 49.8268 14.492C49.7633 14.4268 49.7315 14.355 49.7315 14.2766C49.7315 14.355 49.6998 14.4268 49.6363 14.492C49.5855 14.5573 49.5156 14.59 49.4267 14.59H48.4359C48.4359 14.4725 48.455 14.3876 48.4931 14.3354C48.5439 14.2832 48.5947 14.2309 48.6455 14.1787C48.6963 14.1134 48.7408 14.0286 48.7789 13.9241C48.8297 13.8197 48.8551 13.6565 48.8551 13.4345V8.65606C48.817 8.25133 48.6392 7.95757 48.3216 7.77479C48.4613 7.68339 48.6392 7.6377 48.8551 7.6377V2.03672C48.8551 1.81477 48.8297 1.65157 48.7789 1.54712C48.7408 1.44268 48.6963 1.36434 48.6455 1.31212C48.5947 1.24684 48.5439 1.18809 48.4931 1.13586C48.455 1.08364 48.4359 0.998776 48.4359 0.881273H49.4457C49.5219 0.881273 49.5918 0.913913 49.6553 0.979192C49.7188 1.03142 49.7506 1.10322 49.7506 1.19462C49.7506 0.985721 49.8522 0.881273 50.0554 0.881273H51.8464C52.2529 0.881273 52.634 0.959609 52.9896 1.11628C53.3453 1.27295 53.6565 1.48837 53.9232 1.76255C54.19 2.02366 54.3995 2.33701 54.552 2.70257C54.7044 3.06814 54.787 3.45328 54.7997 3.85802V5.13097C54.7997 5.67932 54.6726 6.18197 54.4186 6.63892C54.1646 7.09588 53.8216 7.46144 53.3897 7.73562C53.8216 7.99674 54.1646 8.3623 54.4186 8.83231C54.6726 9.28927 54.7997 9.79192 54.7997 10.3403V12.9449C54.7997 13.2191 54.7997 13.4998 54.7997 13.787C54.8124 14.0612 54.8441 14.3158 54.8949 14.5508C54.9457 14.7727 55.0219 14.9621 55.1236 15.1187C55.2252 15.2754 55.3649 15.3733 55.5427 15.4125ZM53.8089 4.79804C53.7962 4.82415 53.7898 4.85679 53.7898 4.89596V5.34639C53.7771 5.39861 53.7708 5.45084 53.7708 5.50306C53.7708 5.54223 53.7708 5.5814 53.7708 5.62056C53.7708 5.64668 53.7644 5.66626 53.7517 5.67932C53.7517 5.69237 53.7517 5.71196 53.7517 5.73807V5.85557C53.739 5.88168 53.7327 5.91432 53.7327 5.95349C53.7327 5.9796 53.7263 6.00571 53.7136 6.03182C53.7136 6.05794 53.7073 6.07752 53.6946 6.09058V6.12974L53.6755 6.16891C53.6755 6.16891 53.6882 6.16238 53.7136 6.14933V6.12974L53.7327 6.11016C53.7454 6.0971 53.7517 6.09058 53.7517 6.09058C53.7517 6.07752 53.7581 6.06446 53.7708 6.05141C53.7835 6.0253 53.7962 5.99918 53.8089 5.97307C53.8216 5.93391 53.8343 5.90127 53.847 5.87515C53.8597 5.84904 53.8661 5.83599 53.8661 5.83599C53.8661 5.82293 53.8724 5.80335 53.8851 5.77723C53.8978 5.75112 53.9042 5.73154 53.9042 5.71848C53.9042 5.69237 53.9105 5.66626 53.9232 5.64015C53.9359 5.61404 53.9423 5.59445 53.9423 5.5814C53.9423 5.56834 53.9486 5.54876 53.9613 5.52264C53.9613 5.49653 53.9613 5.47695 53.9613 5.46389C53.974 5.43778 53.9804 5.41167 53.9804 5.38556C53.9931 5.33333 53.9994 5.28111 53.9994 5.22889C54.0121 5.17666 54.0248 5.12444 54.0375 5.07222C54.0502 5.03305 54.0566 4.9743 54.0566 4.89596C54.0566 4.86985 54.0566 4.84374 54.0566 4.81763C54.0693 4.79151 54.0756 4.7654 54.0756 4.73929V4.05386C54.0756 3.97552 54.0693 3.91677 54.0566 3.8776V3.79927C54.0566 3.77315 54.0502 3.7601 54.0375 3.7601C54.0375 3.74704 54.0375 3.72746 54.0375 3.70135C54.0375 3.63607 54.0248 3.53815 53.9994 3.40759C53.9867 3.38148 53.9804 3.35537 53.9804 3.32925C53.9804 3.30314 53.974 3.27703 53.9613 3.25092C53.9613 3.23786 53.955 3.23133 53.9423 3.23133C53.9423 3.21828 53.9423 3.20522 53.9423 3.19217C53.9423 3.17911 53.9359 3.17258 53.9232 3.17258C53.9232 3.15953 53.9232 3.14647 53.9232 3.13342C53.9105 3.1073 53.9042 3.08772 53.9042 3.07466C53.9042 3.06161 53.8978 3.04202 53.8851 3.01591C53.8724 2.9898 53.8661 2.97022 53.8661 2.95716C53.8661 2.9441 53.8597 2.92452 53.847 2.89841C53.8343 2.88535 53.8279 2.8723 53.8279 2.85924C53.8279 2.84619 53.8216 2.83313 53.8089 2.82007C53.7835 2.76785 53.7708 2.74174 53.7708 2.74174C53.7581 2.72868 53.7517 2.72216 53.7517 2.72216C53.7517 2.7091 53.7454 2.69604 53.7327 2.68299C53.72 2.66993 53.7136 2.65688 53.7136 2.64382C53.7009 2.63076 53.6946 2.61771 53.6946 2.60465H53.6755C53.6755 2.60465 53.6819 2.61771 53.6946 2.64382V2.68299C53.7073 2.69604 53.7136 2.72215 53.7136 2.76132C53.7136 2.77438 53.7136 2.78743 53.7136 2.80049C53.7263 2.80049 53.7327 2.81355 53.7327 2.83966C53.7327 2.87883 53.739 2.91146 53.7517 2.93758V3.0355C53.7517 3.06161 53.7517 3.08119 53.7517 3.09425C53.7644 3.1073 53.7708 3.12689 53.7708 3.153C53.7708 3.2705 53.7771 3.36189 53.7898 3.42717V3.74051C53.8025 3.80579 53.8089 3.91024 53.8089 4.05386V4.79804ZM49.884 6.81518C49.884 6.7499 49.8776 6.67809 49.8649 6.59976C49.8649 6.52142 49.8649 6.44309 49.8649 6.36475V5.93391C49.8522 5.64668 49.8458 5.3725 49.8458 5.11138C49.8458 4.85027 49.8395 4.6022 49.8268 4.3672C49.8141 4.26275 49.8077 4.1583 49.8077 4.05386C49.8077 3.94941 49.8014 3.85149 49.7887 3.7601C49.7887 3.65565 49.7823 3.56426 49.7696 3.48592C49.7696 3.40759 49.7696 3.33578 49.7696 3.2705C49.7696 3.20522 49.7633 3.14647 49.7506 3.09425C49.7506 3.04202 49.7506 2.99633 49.7506 2.95716V2.85924C49.7379 2.85924 49.7315 2.86577 49.7315 2.87882V2.95716C49.7315 2.99633 49.7252 3.04202 49.7125 3.09425C49.7125 3.14647 49.7125 3.20522 49.7125 3.2705C49.7125 3.33578 49.7061 3.40759 49.6934 3.48592C49.6934 3.56426 49.6934 3.65565 49.6934 3.7601C49.6807 3.85149 49.6744 3.94941 49.6744 4.05386C49.6744 4.1583 49.668 4.26275 49.6553 4.3672C49.6426 4.6022 49.6363 4.85027 49.6363 5.11138C49.6363 5.3725 49.6299 5.64668 49.6172 5.93391V6.36475C49.6172 6.44309 49.6109 6.52142 49.5982 6.59976C49.5982 6.67809 49.5982 6.7499 49.5982 6.81518V8.63648C49.5982 8.74092 49.6045 8.81926 49.6172 8.87148V9.51775C49.6172 9.66136 49.6172 9.80498 49.6172 9.94859C49.6299 10.0792 49.6363 10.2097 49.6363 10.3403C49.6363 10.4839 49.6363 10.6144 49.6363 10.7319C49.649 10.8495 49.6553 10.967 49.6553 11.0845C49.668 11.202 49.6744 11.3129 49.6744 11.4174C49.6744 11.5088 49.6807 11.6067 49.6934 11.7111C49.6934 11.8025 49.6934 11.8874 49.6934 11.9657C49.7061 12.0441 49.7125 12.1159 49.7125 12.1812C49.7125 12.2464 49.7125 12.3117 49.7125 12.377C49.7252 12.4292 49.7315 12.4684 49.7315 12.4945V12.5924C49.7315 12.6055 49.7379 12.612 49.7506 12.612V12.4945C49.7506 12.4684 49.7506 12.4292 49.7506 12.377C49.7633 12.3117 49.7696 12.2464 49.7696 12.1812C49.7696 12.1159 49.7696 12.0441 49.7696 11.9657C49.7823 11.8874 49.7887 11.8025 49.7887 11.7111C49.8014 11.6067 49.8077 11.5088 49.8077 11.4174C49.8077 11.3129 49.8141 11.202 49.8268 11.0845C49.8268 10.967 49.8268 10.8495 49.8268 10.7319C49.8395 10.6144 49.8458 10.4839 49.8458 10.3403C49.8458 10.2097 49.8458 10.0792 49.8458 9.94859C49.8586 9.80498 49.8649 9.66136 49.8649 9.51775V9.0869C49.8649 8.98246 49.8713 8.91065 49.884 8.87148V6.81518ZM53.0277 3.93635C53.0277 3.76663 53.0214 3.55773 53.0087 3.30967C52.996 3.06161 52.9515 2.8266 52.8753 2.60465C52.7991 2.3827 52.6784 2.19339 52.5133 2.03672C52.3609 1.86699 52.1322 1.78213 51.8274 1.78213H51.1415C51.0017 1.79519 50.8811 1.85394 50.7795 1.95838C50.6778 2.06283 50.627 2.18686 50.627 2.33048V6.73684C50.627 6.88046 50.6778 7.00449 50.7795 7.10894C50.8811 7.21338 51.0017 7.26561 51.1415 7.26561H51.8274C52.1322 7.26561 52.3609 7.18727 52.5133 7.0306C52.6784 6.87393 52.7991 6.68462 52.8753 6.46267C52.9515 6.22766 52.996 5.99266 53.0087 5.75765C53.0214 5.50959 53.0277 5.30069 53.0277 5.13097V3.93635ZM54.3043 14.6683C54.3043 14.6683 54.2979 14.6618 54.2852 14.6487L54.2662 14.6291C54.2535 14.603 54.2408 14.5769 54.2281 14.5508C54.2281 14.5247 54.2154 14.4986 54.19 14.4725C54.1773 14.4333 54.1646 14.3941 54.1518 14.355C54.1391 14.3027 54.1264 14.244 54.1137 14.1787C54.0883 14.0481 54.0756 13.9241 54.0756 13.8066C54.0629 13.7413 54.0566 13.6761 54.0566 13.6108C54.0566 13.5324 54.0566 13.4476 54.0566 13.3562V12.3182C54.0566 12.2268 54.0566 12.1355 54.0566 12.0441C54.0566 11.9527 54.0629 11.8548 54.0756 11.7503C54.0756 11.6589 54.0756 11.5675 54.0756 11.4761C54.0756 11.3847 54.0693 11.2934 54.0566 11.202V10.9278C54.0566 10.7972 54.0502 10.7058 54.0375 10.6536C54.0375 10.5622 54.0312 10.4774 54.0185 10.399C54.0185 10.3076 54.0121 10.2228 53.9994 10.1444C53.974 9.96165 53.9486 9.80498 53.9232 9.67442C53.9105 9.60914 53.8978 9.55039 53.8851 9.49816C53.8724 9.43289 53.8534 9.36761 53.8279 9.30233C53.8025 9.23705 53.7835 9.18482 53.7708 9.14566C53.7581 9.10649 53.739 9.06732 53.7136 9.02815C53.6882 8.98899 53.6692 8.95634 53.6565 8.93023C53.6438 8.90412 53.6311 8.87801 53.6184 8.8519C53.6057 8.8519 53.593 8.84537 53.5803 8.83231C53.5676 8.83231 53.5612 8.82579 53.5612 8.81273L53.5803 8.83231C53.5803 8.84537 53.5866 8.85843 53.5993 8.87148C53.5993 8.88454 53.5993 8.89759 53.5993 8.91065C53.612 8.91065 53.6184 8.92371 53.6184 8.94982C53.6311 8.96287 53.6374 8.97593 53.6374 8.98899C53.6374 9.00204 53.6438 9.02162 53.6565 9.04774C53.6692 9.09996 53.6882 9.19135 53.7136 9.32191C53.7263 9.38719 53.7327 9.45247 53.7327 9.51775C53.7454 9.58303 53.7581 9.64831 53.7708 9.71359C53.7708 9.77887 53.7708 9.85067 53.7708 9.92901C53.7835 9.99429 53.7898 10.0726 53.7898 10.164V12.5924C53.7898 12.6446 53.7898 12.6903 53.7898 12.7295C53.8025 12.7687 53.8089 12.8144 53.8089 12.8666C53.8089 12.958 53.8089 13.0494 53.8089 13.1408C53.8216 13.2191 53.8343 13.2974 53.847 13.3758C53.8597 13.4541 53.8661 13.5324 53.8661 13.6108C53.8788 13.6891 53.8915 13.7609 53.9042 13.8262C53.9296 13.9045 53.9486 13.9763 53.9613 14.0416C53.974 14.0938 53.9931 14.1526 54.0185 14.2179C54.0439 14.2831 54.0629 14.3354 54.0756 14.3745C54.0883 14.4137 54.1074 14.4529 54.1328 14.492L54.1709 14.5312C54.1836 14.5443 54.19 14.5573 54.19 14.5704C54.19 14.5704 54.1963 14.5769 54.209 14.59L54.2852 14.6683H54.3043Z" fill="#F4EDE8"/>
</svg>
